<svg width="139" height="29" viewBox="0 0 139 29" fill="none" xmlns="http://www.w3.org/2000/svg">
<path d="M128.853 28.7878V25.52C129.617 25.3785 130.396 25.2795 131.133 25.0815C133.315 24.5156 134.691 23.002 134.816 21.0922C134.941 19.0268 133.968 17.6546 131.605 16.8059C129.284 15.9854 126.879 15.3629 124.572 14.4717C121.138 13.1278 119.748 10.9351 119.86 7.48342C119.943 5.02196 121.083 3.16879 123.071 1.86732C127.769 -1.17414 135.469 0.367812 138.819 4.95123C138.013 5.81415 137.207 6.69123 136.331 7.62489C134.469 5.41806 132.272 3.98928 129.465 3.76293C127.824 3.63562 126.309 3.98928 125.086 5.16342C123.196 7.00245 123.501 9.93074 125.837 11.0907C127.505 11.9112 129.353 12.3639 131.119 13.0005C132.425 13.4673 133.774 13.8351 134.997 14.4576C139.89 16.919 140.39 23.4546 135.956 26.7224C133.885 28.2503 131.508 28.7878 128.839 28.8161L128.853 28.7878Z" fill="white"/>
<path d="M93.2408 0.806335H75.1152V4.20146H93.2408V0.806335Z" fill="#3BC194"/>
<path d="M61.98 0.848787C58.8525 0.806348 55.725 0.848787 52.5975 0.848787H51.5967V4.35708C55.1551 4.35708 58.5328 4.2722 61.9105 4.39952C62.9947 4.44196 64.1901 4.79562 65.0936 5.38976C67.4983 6.97415 68.4296 10.4966 67.4705 13.5381C66.5253 16.5654 64.4681 18.0366 61.2016 18.0366C58.0324 18.0366 54.8632 18.0366 51.6384 18.0366V28.8161H55.6555V21.46C57.8517 21.46 59.8255 21.46 61.8132 21.46C67.5539 21.46 71.8907 17.0746 71.9602 11.2463C72.0297 5.44635 67.6929 0.905373 61.98 0.834641V0.848787Z" fill="white"/>
<path d="M20.8361 28.8302H25.0061L13.9 0.806335H11.2729C11.2729 0.806335 6.672 12.2932 4.6426 17.3434C3.1275 21.1063 1.6263 24.7985 0 28.8302C0.9452 28.8302 4.17 28.8302 4.17 28.8302L12.5934 8.28975L20.8361 28.8302Z" fill="white"/>
<path d="M93.2408 25.421H75.1152V28.8161H93.2408V25.421Z" fill="#3BC194"/>
<path d="M90.5442 12.6751H75.1152V16.0703H90.5442V12.6751Z" fill="#3BC194"/>
<path d="M38.6558 0.834628C35.5283 0.792189 32.4008 0.834628 29.2733 0.834628H28.2725V4.34292C31.8448 4.34292 35.2225 4.25804 38.5863 4.38536C39.6705 4.4278 40.8659 4.78146 41.7694 5.3756C44.1741 6.95999 45.1054 10.4824 44.1463 13.5239C43.2011 16.5512 41.1439 18.0224 37.8774 18.0224C34.7082 18.0224 31.539 18.0224 28.3142 18.0224V28.8019H32.3313V21.4459C34.5275 21.4459 36.5013 21.4459 38.489 21.4459C44.2297 21.4459 48.5665 17.0605 48.6499 11.218C48.7194 5.41804 44.3826 0.877067 38.6697 0.806335L38.6558 0.834628Z" fill="white"/>
<path d="M110.77 19.9463C111.284 19.6493 111.673 19.4371 112.048 19.1966C115.398 17.1171 117.108 13.1561 116.469 8.95463C115.871 5.02195 113.049 1.30146 109.185 1.04682C105.613 0.806335 100.525 0.806335 96.1328 0.806335C96.1328 1.73999 96.1606 2.91414 96.1606 4.15902C99.7051 4.15902 103.083 4.15902 106.474 4.15902C109.977 4.15902 112.424 6.77609 112.493 10.5107C112.563 14.3161 110.116 17.0888 106.572 17.1454C103.625 17.1878 100.678 17.1454 97.7313 17.1454C97.2031 17.1454 96.6749 17.1454 96.1328 17.1454V28.8019H100.289V27.5288C100.289 25.2088 100.289 22.9454 100.289 20.5971C102.138 20.5971 103.833 20.5263 105.515 20.6395C106.099 20.6819 106.836 21.078 107.169 21.5449L111.937 28.8019H116.524C115.384 27.0761 114.55 25.6615 113.605 24.2327C112.674 22.818 111.729 21.3893 110.756 19.918L110.77 19.9463Z" fill="white"/>
</svg>
