<svg width="19" height="22" viewBox="0 0 19 22" fill="none" xmlns="http://www.w3.org/2000/svg">
<path d="M9.50009 21.6178C10.796 21.6178 11.9119 20.835 12.4016 19.7178H6.59863C7.08828 20.835 8.20425 21.6178 9.50009 21.6178Z" fill="#FFD400"/>
<path d="M16.0444 10.4653V9.07775C16.0444 6.12972 14.0849 3.63106 11.4 2.81495V1.89999C11.4 0.852337 10.5477 0 9.50002 0C8.45236 0 7.60003 0.852337 7.60003 1.89999V2.81495C4.91512 3.63106 2.9556 6.12968 2.9556 9.07775V10.4653C2.9556 13.0548 1.96853 15.5103 0.176242 17.3794C0.000598234 17.5625 -0.0487594 17.8328 0.0508003 18.0662C0.15036 18.2996 0.379626 18.4511 0.633381 18.4511H18.3667C18.6204 18.4511 18.8496 18.2996 18.9492 18.0662C19.0488 17.8328 18.9994 17.5625 18.8238 17.3794C17.0315 15.5103 16.0444 13.0548 16.0444 10.4653ZM10.1334 2.56406C9.9249 2.54397 9.71366 2.53333 9.50002 2.53333C9.28638 2.53333 9.07514 2.54397 8.86669 2.56406V1.89999C8.86669 1.55078 9.1508 1.26666 9.50002 1.26666C9.84924 1.26666 10.1334 1.55078 10.1334 1.89999V2.56406Z" fill="#FFD400"/>
<path d="M17.7337 9.07783C17.7337 9.42759 18.0173 9.71116 18.367 9.71116C18.7168 9.71116 19.0004 9.42759 19.0004 9.07783C19.0004 6.54028 18.0122 4.1546 16.2179 2.36029C15.9706 2.113 15.5696 2.11295 15.3222 2.36029C15.0749 2.60763 15.0749 3.00861 15.3222 3.25595C16.8773 4.81103 17.7337 6.8786 17.7337 9.07783Z" fill="#FFD400"/>
<path d="M0.633331 9.71113C0.983099 9.71113 1.26666 9.42757 1.26666 9.0778C1.26666 6.87862 2.1231 4.81105 3.67814 3.25596C3.92547 3.00863 3.92547 2.60764 3.67814 2.36031C3.43084 2.11297 3.02982 2.11297 2.78248 2.36031C0.988166 4.15462 0 6.54025 0 9.0778C0 9.42757 0.283564 9.71113 0.633331 9.71113Z" fill="#FFD400"/>
</svg>
