<svg width="25" height="25" viewBox="0 0 25 25" fill="none" xmlns="http://www.w3.org/2000/svg">
<path d="M23.4375 4.35938V5.85938H1.5625V4.35938C1.5625 3.46094 2.28906 2.73438 3.1875 2.73438H5.46875V1.95312C5.46875 1.52344 5.82031 1.17188 6.25 1.17188C6.67969 1.17188 7.03125 1.52344 7.03125 1.95312V2.73438H11.7188V1.95312C11.7188 1.52344 12.0703 1.17188 12.5 1.17188C12.9297 1.17188 13.2812 1.52344 13.2812 1.95312V2.73438H17.9688V1.95312C17.9688 1.52344 18.3203 1.17188 18.75 1.17188C19.1797 1.17188 19.5312 1.52344 19.5312 1.95312V2.73438H21.8125C22.7109 2.73438 23.4375 3.46094 23.4375 4.35938Z" fill="#414141"/>
<path d="M5.46875 11.7188H7.03125V13.2812H5.46875V11.7188Z" fill="#414141"/>
<path d="M5.46875 17.9688V19.5312H7.03125V17.9688H5.46875ZM5.46875 17.9688V19.5312H7.03125V17.9688H5.46875ZM5.46875 17.9688V19.5312H7.03125V17.9688H5.46875ZM5.46875 17.9688V19.5312H7.03125V17.9688H5.46875ZM1.5625 7.42188V22.2031C1.5625 23.1016 2.28906 23.8281 3.1875 23.8281H21.8125C22.7109 23.8281 23.4375 23.1016 23.4375 22.2031V7.42188H1.5625ZM8.59375 20.3125C8.59375 20.7422 8.24219 21.0938 7.8125 21.0938H4.6875C4.25781 21.0938 3.90625 20.7422 3.90625 20.3125V17.1875C3.90625 16.7578 4.25781 16.4062 4.6875 16.4062H7.8125C8.24219 16.4062 8.59375 16.7578 8.59375 17.1875V20.3125ZM8.59375 14.0625C8.59375 14.4922 8.24219 14.8438 7.8125 14.8438H4.6875C4.25781 14.8438 3.90625 14.4922 3.90625 14.0625V10.9375C3.90625 10.5078 4.25781 10.1562 4.6875 10.1562H7.8125C8.24219 10.1562 8.59375 10.5078 8.59375 10.9375V14.0625ZM16.4062 21.0938H10.9375C10.5078 21.0938 10.1562 20.7422 10.1562 20.3125C10.1562 19.8828 10.5078 19.5312 10.9375 19.5312H16.4062C16.8359 19.5312 17.1875 19.8828 17.1875 20.3125C17.1875 20.7422 16.8359 21.0938 16.4062 21.0938ZM20.3125 17.9688H10.9375C10.5078 17.9688 10.1562 17.6172 10.1562 17.1875C10.1562 16.7578 10.5078 16.4062 10.9375 16.4062H20.3125C20.7422 16.4062 21.0938 16.7578 21.0938 17.1875C21.0938 17.6172 20.7422 17.9688 20.3125 17.9688ZM10.1562 14.0625C10.1562 13.6328 10.5078 13.2812 10.9375 13.2812H16.4062C16.8359 13.2812 17.1875 13.6328 17.1875 14.0625C17.1875 14.4922 16.8359 14.8438 16.4062 14.8438H10.9375C10.5078 14.8438 10.1562 14.4922 10.1562 14.0625ZM20.3125 11.7188H10.9375C10.5078 11.7188 10.1562 11.3672 10.1562 10.9375C10.1562 10.5078 10.5078 10.1562 10.9375 10.1562H20.3125C20.7422 10.1562 21.0938 10.5078 21.0938 10.9375C21.0938 11.3672 20.7422 11.7188 20.3125 11.7188ZM5.46875 19.5312H7.03125V17.9688H5.46875V19.5312ZM5.46875 17.9688V19.5312H7.03125V17.9688H5.46875ZM5.46875 17.9688V19.5312H7.03125V17.9688H5.46875ZM5.46875 17.9688V19.5312H7.03125V17.9688H5.46875ZM5.46875 17.9688V19.5312H7.03125V17.9688H5.46875Z" fill="#414141"/>
</svg>
