<svg width="26" height="28" viewBox="0 0 26 28" fill="none" xmlns="http://www.w3.org/2000/svg">
<path d="M23.1369 9.4447H17.7457V8.24568C17.7457 7.55054 17.4616 6.91797 17.0041 6.46412C16.5467 6.00666 15.9177 5.72437 15.2226 5.72437H10.7785C9.39186 5.72437 8.2554 6.85547 8.2554 8.24573V9.44476H2.86589C1.47387 9.44476 0.342773 10.5759 0.342773 11.9679V14.5482H4.77973C6.3433 11.6033 9.44184 9.59482 13.0014 9.59482C16.561 9.59482 19.6595 11.6033 21.2231 14.5482H25.6582V11.9661C25.6582 10.5759 24.5271 9.4447 23.1369 9.4447ZM14.9831 8.46016H11.0179C10.8696 8.46016 10.7499 8.34045 10.7499 8.19214C10.7499 8.04383 10.8696 7.92411 11.0179 7.92411H14.9831C15.1314 7.92411 15.2511 8.04383 15.2511 8.19214C15.2511 8.3404 15.1314 8.46016 14.9831 8.46016ZM22.4167 13.5564C21.7556 13.5564 21.2177 13.0186 21.2177 12.3574C21.2177 11.6962 21.7556 11.1584 22.4167 11.1584C23.0779 11.1584 23.6157 11.6962 23.6157 12.3574C23.6157 13.0186 23.0778 13.5564 22.4167 13.5564Z" fill="#414141"/>
<path d="M22.4161 13.021C22.7824 13.021 23.0793 12.724 23.0793 12.3578C23.0793 11.9915 22.7824 11.6946 22.4161 11.6946C22.0499 11.6946 21.7529 11.9915 21.7529 12.3578C21.7529 12.724 22.0499 13.021 22.4161 13.021Z" fill="#414141"/>
<path d="M3.69589 18.9014C3.69589 17.5415 3.98896 16.2496 4.51609 15.0845H0.341797V23.81C0.341797 25.2002 1.4729 26.3314 2.86316 26.3314H7.40731C5.15402 24.6321 3.69589 21.9338 3.69589 18.9014Z" fill="#414141"/>
<path d="M25.6575 15.0845H21.485C22.0122 16.2495 22.3052 17.5415 22.3052 18.9014C22.3052 21.9338 20.8471 24.6321 18.5938 26.3314H23.1361C23.8098 26.3314 24.4442 26.0688 24.9195 25.5934C25.3966 25.1163 25.6593 24.4838 25.6593 23.8101L25.6575 15.0845Z" fill="#414141"/>
<path d="M13.0012 13.0989C9.80083 13.0989 7.19727 15.7024 7.19727 18.9011C7.19727 22.1014 9.80083 24.7032 13.0012 24.7032C16.1998 24.7032 18.8033 22.1014 18.8033 18.9011C18.8033 15.7024 16.1998 13.0989 13.0012 13.0989ZM16.3892 19.1691C16.2409 19.1691 16.1212 19.0494 16.1212 18.9011C16.1212 17.1803 14.722 15.7793 13.0012 15.7793C12.8529 15.7793 12.7332 15.6596 12.7332 15.5113C12.7332 15.3647 12.8529 15.2432 13.0012 15.2432C15.0169 15.2432 16.6572 16.8854 16.6572 18.9011C16.6572 19.0494 16.5375 19.1691 16.3892 19.1691Z" fill="#414141"/>
<path d="M13.0009 10.1309C8.16549 10.1309 4.23242 14.0657 4.23242 18.9011C4.23242 23.7365 8.16544 27.6696 13.0009 27.6696C17.8364 27.6696 21.7694 23.7366 21.7694 18.9011C21.7694 14.0656 17.8363 10.1309 13.0009 10.1309ZM13.0009 25.2393C9.50566 25.2393 6.66087 22.3963 6.66087 18.9011C6.66087 15.4059 9.50566 12.5629 13.0009 12.5629C16.4961 12.5629 19.3391 15.4059 19.3391 18.9011C19.3391 22.3963 16.4961 25.2393 13.0009 25.2393Z" fill="#414141"/>
<path d="M13.0004 4.26591C12.8524 4.26591 12.7324 4.14592 12.7324 3.99788V0.598346C12.7324 0.450252 12.8524 0.330322 13.0004 0.330322C13.1485 0.330322 13.2685 0.450307 13.2685 0.598346V3.99788C13.2685 4.14592 13.1485 4.26591 13.0004 4.26591Z" fill="#414141"/>
<path d="M15.4702 4.26583C15.4016 4.26583 15.333 4.23964 15.2807 4.1873C15.176 4.08268 15.176 3.91288 15.2807 3.80826L17.6845 1.40447C17.7892 1.29975 17.9588 1.29975 18.0635 1.40447C18.1682 1.50909 18.1682 1.67889 18.0635 1.78351L15.6597 4.1873C15.6073 4.23964 15.5388 4.26583 15.4702 4.26583Z" fill="#414141"/>
<path d="M10.5302 4.26583C10.4616 4.26583 10.3931 4.23964 10.3407 4.1873L7.93694 1.78351C7.83222 1.67889 7.83222 1.50909 7.93694 1.40447C8.04167 1.29975 8.21126 1.29975 8.31598 1.40447L10.7198 3.80826C10.8245 3.91288 10.8245 4.08268 10.7198 4.1873C10.6674 4.23964 10.5988 4.26583 10.5302 4.26583Z" fill="#414141"/>
</svg>
