<svg width="15" height="15" viewBox="0 0 15 15" fill="none" xmlns="http://www.w3.org/2000/svg">
<path d="M4.01783 6.09888C3.56213 6.3305 3.05552 6.44389 2.54456 6.42862C2.0336 6.44389 1.52699 6.3305 1.07129 6.09888V12.0739C1.2048 12.0605 1.3389 12.0538 1.47309 12.0538C1.98405 12.0386 2.49066 12.152 2.94636 12.3836V10.4466C2.94636 10.018 3.37066 9.66553 4.01783 9.49169V6.09888Z" fill="#FFD400"/>
<path d="M1.47327 13.6611C2.28694 13.6611 2.94654 13.4212 2.94654 13.1253C2.94654 12.8295 2.28694 12.5896 1.47327 12.5896C0.659606 12.5896 0 12.8295 0 13.1253C0 13.4212 0.659606 13.6611 1.47327 13.6611Z" fill="#FFD400"/>
<path d="M0 13.8672V14.4648C0 14.6791 0.587433 15.0005 1.47327 15.0005C2.35911 15.0005 2.94654 14.6791 2.94654 14.4648V13.8672C2.49084 14.0988 1.98423 14.2122 1.47327 14.1969C0.962309 14.2122 0.455704 14.0988 0 13.8672Z" fill="#FFD400"/>
<path d="M7.90779 2.44559C8.10589 2.59434 8.34661 2.67539 8.59434 2.67675C8.36222 2.27814 8.1785 1.85324 8.04708 1.41108C8.00736 1.26854 8.09071 1.12079 8.23325 1.08107C8.37579 1.04135 8.52354 1.1247 8.56326 1.26724C8.71244 1.7705 8.94056 2.24689 9.23909 2.67863H9.51446C9.81356 2.24735 10.0416 1.77094 10.19 1.2675C10.2297 1.12489 10.3774 1.04142 10.52 1.08107C10.6626 1.12072 10.7461 1.26847 10.7065 1.41108C10.5752 1.85286 10.3916 2.27739 10.1598 2.67568C10.4026 2.67197 10.6379 2.59141 10.8321 2.44559C11.4592 1.95539 11.6791 1.17589 11.7514 0.608014C11.7659 0.5107 11.7209 0.414151 11.637 0.362648C11.5447 0.302404 11.4254 0.302404 11.333 0.362648C11.1454 0.480323 10.9274 0.540478 10.7059 0.53569C10.3956 0.538198 10.0963 0.421176 9.86992 0.208892C9.73751 0.0752098 9.55716 0 9.36901 0C9.18085 0 9.0005 0.0752098 8.8681 0.208892C8.64176 0.421017 8.34254 0.538019 8.03235 0.53569C7.81198 0.54055 7.595 0.480766 7.40822 0.363719C7.36293 0.334771 7.31036 0.319259 7.25661 0.318985C7.20213 0.319169 7.14882 0.334771 7.10285 0.363987C7.01936 0.415365 6.97457 0.511589 6.98901 0.60855C7.06213 1.17643 7.28125 1.95539 7.90779 2.44559Z" fill="#FFD400"/>
<path d="M4.15198 2.14276C4.96565 2.14276 5.62525 1.9029 5.62525 1.60702C5.62525 1.31115 4.96565 1.07129 4.15198 1.07129C3.33832 1.07129 2.67871 1.31115 2.67871 1.60702C2.67871 1.9029 3.33832 2.14276 4.15198 2.14276Z" fill="#FFD400"/>
<path d="M2.54456 5.893C3.35823 5.893 4.01783 5.65315 4.01783 5.35727C4.01783 5.06139 3.35823 4.82153 2.54456 4.82153C1.7309 4.82153 1.07129 5.06139 1.07129 5.35727C1.07129 5.65315 1.7309 5.893 2.54456 5.893Z" fill="#FFD400"/>
<path d="M14.7909 8.6331C13.9192 4.93358 11.592 3.42013 10.884 3.03708C10.7536 3.10046 10.6156 3.14682 10.4734 3.17503L10.9708 3.63924C11.0228 3.68771 11.0534 3.75486 11.0559 3.8259C11.0583 3.89695 11.0325 3.96605 10.9839 4.01801C10.9355 4.07 10.8683 4.1006 10.7973 4.10306C10.7262 4.10553 10.6571 4.07965 10.6052 4.03113L9.73032 3.2144H9.64461V4.01801C9.64461 4.16595 9.52468 4.28587 9.37674 4.28587C9.2288 4.28587 9.10887 4.16595 9.10887 4.01801V3.2144H9.02315L8.1483 4.03113C8.09634 4.07965 8.02724 4.10553 7.95619 4.10306C7.88515 4.1006 7.818 4.07 7.76953 4.01801C7.72098 3.96609 7.69506 3.897 7.69747 3.82596C7.69988 3.75492 7.73043 3.68775 7.78239 3.63924L8.27714 3.17771C8.13395 3.14986 7.99494 3.10367 7.86355 3.04029C7.19753 3.41557 6.59706 3.89679 6.08572 4.46508C6.08357 4.46722 6.0817 4.46963 6.07956 4.47204C5.88396 4.68572 5.69994 4.90971 5.52829 5.14305C5.43955 5.25851 5.27482 5.28193 5.15742 5.19577C5.04001 5.10961 5.01295 4.94545 5.09648 4.82616C5.2714 4.58776 5.449 4.37266 5.62525 4.17524V2.34839C5.1696 2.5802 4.66299 2.69377 4.15198 2.67867C3.64102 2.69393 3.13442 2.58055 2.67871 2.34892V4.28936C3.75634 4.32391 4.55378 4.77152 4.55378 5.35734V9.39545C4.68729 9.38197 4.8214 9.37527 4.95558 9.37536C6.10072 9.37536 6.96459 9.83609 6.96459 10.4468V13.3934H11.8371C12.117 13.3934 13.556 13.3398 14.3851 12.2951C15.0333 11.4754 15.1699 10.2435 14.7909 8.6331ZM10.7147 8.57175C10.7147 9.16351 10.235 9.64322 9.64327 9.64322V9.91109C9.64327 10.059 9.52334 10.179 9.3754 10.179C9.22746 10.179 9.10753 10.059 9.10753 9.91109V9.64322C8.51577 9.64322 8.03606 9.16351 8.03606 8.57175C8.03606 8.42381 8.15599 8.30389 8.30393 8.30389C8.45187 8.30389 8.5718 8.42381 8.5718 8.57175C8.5718 8.86763 8.81165 9.10749 9.10753 9.10749V8.03602C8.51577 8.03602 8.03606 7.55631 8.03606 6.96455C8.03606 6.37279 8.51577 5.89308 9.10753 5.89308V5.62521C9.10753 5.47727 9.22746 5.35734 9.3754 5.35734C9.52334 5.35734 9.64327 5.47727 9.64327 5.62521V5.89308C10.235 5.89308 10.7147 6.37279 10.7147 6.96455C10.7147 7.11249 10.5948 7.23242 10.4469 7.23242C10.2989 7.23242 10.179 7.11249 10.179 6.96455C10.179 6.66867 9.93914 6.42881 9.64327 6.42881V7.50028C10.235 7.50028 10.7147 7.98 10.7147 8.57175ZM13.9653 11.9611C13.2892 12.8145 12.0739 12.8576 11.8371 12.8576C11.6892 12.8576 11.5692 12.7377 11.5692 12.5898C11.5692 12.4418 11.6892 12.3219 11.8371 12.3219C12.0308 12.3219 13.0224 12.2884 13.545 11.6284C13.7922 11.2792 13.9239 10.8615 13.9219 10.4337C13.9308 10.2868 14.0553 10.1737 14.2024 10.179C14.2733 10.1824 14.3401 10.2138 14.3878 10.2664C14.4356 10.319 14.4605 10.3884 14.4571 10.4594C14.4548 10.9992 14.2828 11.5245 13.9653 11.9611Z" fill="#FFD400"/>
<path d="M8.57227 6.96445C8.57227 7.26032 8.81212 7.50018 9.108 7.50018V6.42871C8.81212 6.42871 8.57227 6.66857 8.57227 6.96445Z" fill="#FFD400"/>
<path d="M9.64355 9.10736C9.93943 9.10736 10.1793 8.8675 10.1793 8.57162C10.1793 8.27575 9.93943 8.03589 9.64355 8.03589V9.10736Z" fill="#FFD400"/>
<path d="M3.48242 11.1885V13.929C3.48242 14.1433 4.06986 14.4648 4.95569 14.4648C5.84153 14.4648 6.42896 14.1433 6.42896 13.929V11.1885C5.97326 11.4201 5.46666 11.5335 4.95569 11.5182C4.44473 11.5335 3.93813 11.4201 3.48242 11.1885Z" fill="#FFD400"/>
<path d="M4.95569 10.9826C5.76936 10.9826 6.42896 10.7427 6.42896 10.4469C6.42896 10.151 5.76936 9.91113 4.95569 9.91113C4.14203 9.91113 3.48242 10.151 3.48242 10.4469C3.48242 10.7427 4.14203 10.9826 4.95569 10.9826Z" fill="#FFD400"/>
<path d="M12.7771 1.87496C12.7771 2.31427 12.3003 2.67321 11.7056 2.67857C11.6057 2.67877 11.506 2.66799 11.4083 2.64642C11.3941 2.66439 11.3769 2.67979 11.3574 2.69196C11.4003 2.71875 11.4485 2.74821 11.4994 2.77768C11.6628 2.88482 11.853 3.01608 12.0619 3.17948C12.0833 3.19555 12.1021 3.21162 12.1235 3.23037C13.4575 3.32949 13.8807 3.88665 13.8941 3.90272C13.9446 3.97552 14.0279 4.01864 14.1165 4.0179C14.1691 4.01852 14.2207 4.0026 14.2638 3.97237C14.386 3.89062 14.4195 3.72563 14.3388 3.60271C14.3174 3.57057 13.9477 3.04019 12.8682 2.79643C13.1438 2.56887 13.3062 2.23229 13.3129 1.87496C13.2762 1.28046 12.8628 0.776334 12.2869 0.624023C12.2865 0.641989 12.2847 0.659896 12.2816 0.677597C12.2609 0.840889 12.2305 1.00279 12.1905 1.16244C12.5141 1.2565 12.7469 1.53932 12.7771 1.87496Z" fill="#FFD400"/>
</svg>
