<svg width="19" height="12" viewBox="0 0 19 12" fill="none" xmlns="http://www.w3.org/2000/svg">
<path d="M9.49476 3.11426C10.2739 3.11426 10.9751 3.42592 11.4871 3.93793C11.9992 4.44993 12.3108 5.15116 12.3108 5.93031C12.3108 6.70945 11.9992 7.41068 11.4871 7.92269C10.9751 8.4347 10.2739 8.74636 9.49476 8.74636C8.71562 8.74636 8.01439 8.4347 7.50238 7.92269C7.0015 7.41068 6.67871 6.70945 6.67871 5.93031C6.67871 5.15116 7.0015 4.44993 7.50238 3.93793C8.01439 3.42592 8.71562 3.11426 9.49476 3.11426Z" fill="#FFD400"/>
<path d="M14.2702 4.4834C15.0605 4.4834 15.7061 5.12898 15.7061 5.93038C15.7061 6.33108 15.5502 6.68726 15.2831 6.9544C15.0271 7.21041 14.6598 7.37736 14.2702 7.37736C13.8695 7.37736 13.5022 7.21041 13.2462 6.9544C13.2351 6.94327 13.2239 6.93214 13.2128 6.92101C12.9679 6.665 12.8232 6.31995 12.8232 5.93038C12.8232 5.12898 13.4688 4.4834 14.2702 4.4834Z" fill="#FFD400"/>
<path d="M4.73116 4.4834C5.53257 4.4834 6.17815 5.12898 6.17815 5.93038C6.17815 6.73179 5.53257 7.37736 4.73116 7.37736C4.33046 7.37736 3.97428 7.21041 3.70714 6.9544C3.45114 6.68726 3.28418 6.33108 3.28418 5.93038C3.28418 5.12898 3.92976 4.4834 4.73116 4.4834Z" fill="#FFD400"/>
<path fill-rule="evenodd" clip-rule="evenodd" d="M3.48389 9.58104C3.40598 8.99112 2.89397 8.54589 2.30404 8.54589C2.05917 8.54589 1.85882 8.34554 1.85882 8.10066V3.9378C1.85882 3.6818 2.05917 3.49258 2.30404 3.49258C2.62683 3.49258 2.92736 3.35901 3.13884 3.1364C3.36145 2.92492 3.49502 2.62439 3.49502 2.3016C3.49502 2.05673 3.68424 1.85638 3.94025 1.85638H15.0598C15.3046 1.85638 15.505 2.05673 15.505 2.3016C15.505 2.62439 15.6385 2.92492 15.85 3.1364C16.0726 3.35901 16.362 3.49258 16.696 3.49258C16.9408 3.49258 17.1412 3.6818 17.1412 3.9378V8.10066C17.1412 8.34554 16.9408 8.54589 16.696 8.54589C16.0838 8.54589 15.5718 9.00225 15.5161 9.61443C15.4938 9.83704 15.2935 10.004 15.0709 10.004H3.92912C3.68424 10.004 3.49502 9.82591 3.48389 9.58104ZM18.1095 -0.00244141H0.890451H0.445226C0.200351 -0.00244141 0 0.19791 0 0.442784V11.4176C0 11.6625 0.200351 11.8628 0.445226 11.8628H18.5548C18.7996 11.8628 19 11.6625 19 11.4176V0.442784C19 0.19791 18.7996 -0.00244141 18.5548 -0.00244141H18.1095Z" fill="#FFD400"/>
</svg>
