<svg width="18" height="18" viewBox="0 0 18 18" fill="none" xmlns="http://www.w3.org/2000/svg">
<path d="M16.4935 6.8021H16.598C17.1034 6.85733 17.5 7.28707 17.5 7.81461V16.4815C17.5 17.0469 17.0443 17.5 16.4875 17.5C16.1012 17.5 15.7589 17.2895 15.5853 16.9382L15.5852 16.938L15.021 15.7976L14.8833 15.5193H14.5729H8.1087C7.55186 15.5193 7.0962 15.0663 7.0962 14.5008V11.998V11.498H6.5962H3.96732H3.65831L3.52011 11.7744L2.79387 13.2269L2.79385 13.2269L2.79205 13.2305C2.58944 13.6442 2.17743 13.8988 1.71057 13.8988C1.0444 13.8988 0.5 13.3544 0.5 12.6882V1.71057C0.5 1.0444 1.0444 0.5 1.71057 0.5H12.6942C13.3604 0.5 13.9048 1.0444 13.9048 1.71057V6.3021V6.8021H14.4048H16.4935ZM3.6012 11.3036H4.1012V11.2976H12.6942C13.2525 11.2976 13.7044 10.8457 13.7044 10.2874V1.71057C13.7044 1.15233 13.2525 0.7004 12.6942 0.7004H1.71657C1.15834 0.7004 0.706402 1.15233 0.706402 1.71057V12.6882C0.706402 13.2465 1.15833 13.6984 1.71657 13.6984C2.10144 13.6984 2.44366 13.4808 2.61683 13.146L2.61687 13.146L2.61964 13.1405L3.51394 11.3579L3.51424 11.3573C3.53154 11.3227 3.56243 11.3036 3.6012 11.3036ZM17.3056 16.4875V15.9875H17.2996V7.82061C17.2996 7.38289 16.95 7.0025 16.4875 7.0025H14.3988H13.8988V7.5025V10.2934C13.8988 10.9596 13.3544 11.504 12.6882 11.504H7.7966H7.2966V12.004V14.5068C7.2966 14.9446 7.64618 15.3249 8.1087 15.3249H14.945C14.9803 15.3249 15.019 15.3469 15.0379 15.3845C15.0379 15.3845 15.0379 15.3846 15.0379 15.3847L15.7698 16.8544L15.7702 16.8551C15.9046 17.124 16.1747 17.3056 16.4935 17.3056C16.956 17.3056 17.3056 16.9252 17.3056 16.4875Z" fill="white" stroke="white"/>
<path d="M3.60118 7.40234H10.8036C10.8575 7.40234 10.9038 7.44858 10.9038 7.50254C10.9038 7.55651 10.8575 7.60274 10.8036 7.60274H3.60118C3.54721 7.60274 3.50098 7.55651 3.50098 7.50254C3.50098 7.44858 3.54721 7.40234 3.60118 7.40234Z" fill="white" stroke="white"/>
<path d="M6.00157 4.40137H10.8032C10.8571 4.40137 10.9034 4.4476 10.9034 4.50157C10.9034 4.55553 10.8571 4.60177 10.8032 4.60177H6.00157C5.9476 4.60177 5.90137 4.55554 5.90137 4.50157C5.90137 4.4476 5.9476 4.40137 6.00157 4.40137Z" fill="white" stroke="white"/>
<path d="M3.90128 4.60177H3.60118C3.54721 4.60177 3.50098 4.55554 3.50098 4.50157C3.50098 4.4476 3.54721 4.40137 3.60118 4.40137H3.90128C3.95524 4.40137 4.00148 4.4476 4.00148 4.50157C4.00148 4.55553 3.95524 4.60177 3.90128 4.60177Z" fill="white" stroke="white"/>
</svg>
