<svg width="27" height="27" viewBox="0 0 27 27" fill="none" xmlns="http://www.w3.org/2000/svg">
<path d="M21.6031 21.892C21.6031 22.2724 21.2936 22.5818 20.9133 22.5818C20.533 22.5818 20.2235 22.2723 20.2235 21.892C20.2235 21.5117 20.533 21.2022 20.9133 21.2022C21.2936 21.2022 21.6031 21.5116 21.6031 21.892ZM14.3342 18.2584V24.382C14.3342 24.8594 13.9458 25.2478 13.4684 25.2478H6.24841C5.77099 25.2478 5.38262 24.8594 5.38262 24.382V18.2584C5.38262 17.781 5.77105 17.3926 6.24841 17.3926H13.4685C13.9458 17.3926 14.3342 17.781 14.3342 18.2584ZM13.4872 18.2584C13.4872 18.2491 13.4777 18.2396 13.4684 18.2396H11.5923V19.5517C11.5923 19.7935 11.4566 20.0079 11.2382 20.1113C11.1527 20.1518 11.062 20.1717 10.9722 20.1717C10.8325 20.1717 10.6947 20.1237 10.5809 20.0304L9.85847 19.4381L9.13604 20.0304C8.94889 20.1837 8.69699 20.2148 8.47867 20.1113C8.26023 20.0079 8.1246 19.7935 8.1246 19.5517V18.2396H6.24847C6.23915 18.2396 6.22973 18.2491 6.22973 18.2584V24.382C6.22973 24.3912 6.2392 24.4007 6.24847 24.4007H13.4685C13.4778 24.4007 13.4873 24.3912 13.4873 24.382V18.2584H13.4872ZM26.9346 4.41995C26.857 4.54283 26.7218 4.61737 26.5764 4.61737H25.7327V9.69887C25.9592 9.93398 26.099 10.2533 26.099 10.6048V25.2079C26.099 25.9285 25.5126 26.5148 24.7919 26.5148H17.0346C16.314 26.5148 15.7276 25.9286 15.7276 25.2079V10.6048C15.7276 9.88416 16.3139 9.29784 17.0346 9.29784H22.6255V8.23123H4.37451V24.8242C4.37451 25.0581 4.18488 25.2477 3.95098 25.2477H1.69087C1.45698 25.2477 1.26734 25.0581 1.26734 24.8242V4.61737H0.423567C0.278243 4.61737 0.143032 4.54283 0.0654201 4.41995C-0.0121916 4.29707 -0.0213504 4.14296 0.0411731 4.01177L1.83657 0.241464C1.90677 0.0939705 2.05558 0 2.21896 0H24.781C24.9444 0 25.0932 0.0939176 25.1634 0.241464L26.9588 4.01177C27.0213 4.14296 27.0122 4.29707 26.9346 4.41995ZM3.05305 7.59599V6.39878C3.05305 6.04847 3.33803 5.76349 3.68834 5.76349H23.3117C23.662 5.76349 23.947 6.04847 23.947 6.39878V7.59599C23.947 7.89061 23.7451 8.13832 23.4726 8.20985V9.29789H24.792C24.8235 9.29789 24.8547 9.29943 24.8857 9.3016V4.61737H2.1144V24.4007H3.52745V8.20979C3.25496 8.13832 3.05305 7.89061 3.05305 7.59599ZM25.252 10.6048C25.252 10.3512 25.0456 10.1449 24.792 10.1449H17.0346C16.781 10.1449 16.5746 10.3512 16.5746 10.6048V25.2079C16.5746 25.4615 16.7809 25.6678 17.0346 25.6678H24.792C25.0456 25.6678 25.252 25.4615 25.252 25.2079V10.6048ZM24.0647 21.892C24.0647 23.6297 22.651 25.0434 20.9133 25.0434C19.1756 25.0434 17.7619 23.6297 17.7619 21.892C17.7619 20.8601 18.2745 19.8901 19.1147 19.3043V12.568C19.1147 11.5762 19.9216 10.7693 20.9134 10.7693C21.9052 10.7693 22.712 11.5762 22.712 12.568V19.3043C23.5522 19.8901 24.0647 20.8601 24.0647 21.892ZM22.4502 21.892C22.4502 21.1915 21.9789 20.5993 21.3368 20.4149V18.8577C21.3368 18.6238 21.1472 18.4342 20.9133 18.4342C20.6794 18.4342 20.4898 18.6238 20.4898 18.8577V20.4149C19.8478 20.5993 19.3764 21.1915 19.3764 21.892C19.3764 22.7394 20.0659 23.4289 20.9133 23.4289C21.7607 23.4289 22.4502 22.7394 22.4502 21.892ZM6.15879 12.7796C6.15879 13.0135 6.34842 13.2031 6.58231 13.2031H6.91574L6.80488 13.2861C6.61752 13.4261 6.57919 13.6915 6.71927 13.8789C6.80244 13.9901 6.92982 14.0488 7.05878 14.0488C7.14704 14.0488 7.23603 14.0214 7.31206 13.9645L8.33033 13.2032H9.12492L8.72765 13.8913L7.55918 14.3925C7.34419 14.4847 7.24471 14.7337 7.33688 14.9486C7.42911 15.1636 7.67814 15.263 7.89308 15.1709L8.02035 15.1163L7.85364 15.4051C7.73664 15.6077 7.8061 15.8667 8.00865 15.9837C8.07536 16.0222 8.14816 16.0405 8.22 16.0405C8.36638 16.0405 8.50874 15.9645 8.5872 15.8287L8.75391 15.5399L8.77027 15.6773C8.79589 15.8926 8.97875 16.0509 9.19035 16.0509C9.20703 16.0509 9.22392 16.0499 9.24086 16.0479C9.47317 16.0203 9.63903 15.8095 9.61145 15.5773L9.46131 14.3146L9.85852 13.6266L10.2558 14.3148L10.1056 15.5773C10.078 15.8096 10.2439 16.0203 10.4761 16.0479C10.4931 16.0499 10.51 16.051 10.5267 16.051C10.7382 16.051 10.9211 15.8927 10.9468 15.6774L10.9631 15.5399L11.1299 15.8287C11.2083 15.9646 11.3506 16.0405 11.4971 16.0405C11.5688 16.0405 11.6417 16.0222 11.7084 15.9837C11.9109 15.8668 11.9804 15.6077 11.8634 15.4052L11.6967 15.1164L11.824 15.171C12.039 15.263 12.2879 15.1636 12.3802 14.9487C12.4723 14.7337 12.3728 14.4847 12.1579 14.3925L10.9894 13.8913L10.5922 13.2033H11.3868L12.405 13.9645C12.4812 14.0215 12.5701 14.0489 12.6583 14.0489C12.7873 14.0489 12.9147 13.9902 12.9978 13.8789C13.1379 13.6916 13.0996 13.4262 12.9122 13.2861L12.8014 13.2032H13.1348C13.3687 13.2032 13.5584 13.0136 13.5584 12.7797C13.5584 12.5458 13.3687 12.3561 13.1348 12.3561H12.8014L12.9122 12.2732C13.0996 12.1332 13.1379 11.8678 12.9978 11.6804C12.8577 11.493 12.5922 11.4548 12.405 11.5948L11.3868 12.3561H10.592L10.9892 11.668L12.1577 11.1668C12.3727 11.0745 12.4722 10.8256 12.38 10.6106C12.2878 10.3956 12.0386 10.296 11.8238 10.3883L11.6965 10.4429L11.8632 10.1541C11.9802 9.95156 11.9108 9.69251 11.7082 9.57557C11.5057 9.45857 11.2466 9.52797 11.1297 9.73058L10.963 10.0194L10.9466 9.88189C10.919 9.64963 10.7078 9.48387 10.476 9.51135C10.2437 9.53893 10.0779 9.74964 10.1054 9.98194L10.2556 11.2445L9.85837 11.9326L9.46115 11.2445L9.61129 9.98194C9.63887 9.74969 9.47301 9.53899 9.2407 9.51135C9.00908 9.48393 8.7978 9.64963 8.77011 9.88189L8.75375 10.0193L8.58704 9.73053C8.47014 9.52803 8.21121 9.45857 8.0085 9.57551C7.80594 9.69246 7.73648 9.9515 7.85348 10.1541L8.02025 10.4429L7.89293 10.3883C7.67788 10.2961 7.42895 10.3956 7.33673 10.6106C7.24456 10.8256 7.34409 11.0745 7.55903 11.1668L8.72749 11.668L9.12476 12.356H8.33033L7.31206 11.5947C7.1248 11.4547 6.85941 11.493 6.71927 11.6803C6.57919 11.8677 6.61752 12.1331 6.80488 12.2732L6.91574 12.3561H6.58231C6.34842 12.3561 6.15879 12.5457 6.15879 12.7796ZM8.93338 21.9726H7.27886C6.96487 21.9726 6.70948 22.2281 6.70948 22.5421V23.3515C6.70948 23.6655 6.96487 23.9209 7.27886 23.9209H8.93338C9.24737 23.9209 9.50276 23.6655 9.50276 23.3515V22.5421C9.50276 22.2281 9.24732 21.9726 8.93338 21.9726Z" fill="white"/>
</svg>
