<svg width="23" height="23" viewBox="0 0 23 23" fill="none" xmlns="http://www.w3.org/2000/svg">
<path d="M20.5357 13.5537C20.4546 13.5537 20.3753 13.5777 20.3079 13.6227L19.0757 14.4441C18.9851 14.5045 18.9222 14.5985 18.9008 14.7053C18.8795 14.8121 18.9014 14.923 18.9618 15.0137C19.0223 15.1043 19.1162 15.1672 19.223 15.1886C19.3298 15.2099 19.4407 15.188 19.5314 15.1276L20.0664 14.7706C19.6717 17.7947 17.0976 20.1251 13.9644 20.1251C13.7376 20.1251 13.5537 20.309 13.5537 20.5358C13.5537 20.7626 13.7376 20.9465 13.9644 20.9465C17.5655 20.9465 20.5354 18.2089 20.9063 14.7049L21.5401 15.1276C21.6307 15.1881 21.7416 15.21 21.8484 15.1886C21.9552 15.1673 22.0492 15.1044 22.1096 15.0137C22.17 14.9231 22.1919 14.8122 22.1706 14.7054C22.1492 14.5986 22.0863 14.5046 21.9957 14.4442L20.7635 13.6228C20.6961 13.5778 20.6168 13.5537 20.5357 13.5537Z" fill="#FFD400"/>
<path d="M17.25 0.000156088C14.0792 0.000156088 11.5 2.5794 11.5 5.75016C11.5 8.92091 14.0792 11.5002 17.25 11.5002C20.4208 11.5002 23 8.92091 23 5.75016C22.9999 5.40481 22.5995 5.21376 22.331 5.43089C20.6832 6.7614 18.8944 6.35015 17.7721 5.22794C16.6499 4.10575 16.2386 2.317 17.5691 0.669013C17.7862 0.400466 17.5953 0.000278891 17.25 0.000156088Z" fill="#FFD400"/>
<path d="M9.03547 2.05371C7.75881 2.05371 6.55895 2.39729 5.52834 2.99708C5.4342 3.05187 5.36568 3.14181 5.33785 3.24711C5.31002 3.35242 5.32516 3.46446 5.37994 3.55861C5.43473 3.65275 5.52467 3.72127 5.62997 3.7491C5.73528 3.77693 5.84732 3.76179 5.94147 3.70701C6.85071 3.17785 7.90596 2.87515 9.03546 2.87515C9.14439 2.87515 9.24886 2.83188 9.32588 2.75486C9.4029 2.67783 9.44618 2.57337 9.44618 2.46444C9.44618 2.35551 9.4029 2.25104 9.32588 2.17402C9.24886 2.09699 9.1444 2.05371 9.03547 2.05371Z" fill="#FFD400"/>
<path d="M3.32648 5.32498C3.18943 5.33352 3.06571 5.40998 2.99678 5.52874C2.51436 6.35768 2.20139 7.29719 2.09592 8.29703L1.45981 7.87268C1.39234 7.8277 1.31307 7.8037 1.23199 7.80369C1.16437 7.8037 1.09781 7.82039 1.03819 7.8523C0.978581 7.8842 0.927767 7.93033 0.890262 7.98659C0.829846 8.07722 0.807905 8.18814 0.829266 8.29495C0.850628 8.40176 0.913542 8.4957 1.00417 8.55613L2.23631 9.37756C2.30378 9.42253 2.38305 9.44653 2.46414 9.44653C2.54522 9.44653 2.62449 9.42253 2.69196 9.37756L3.9241 8.55613C4.01473 8.4957 4.07764 8.40176 4.099 8.29495C4.12037 8.18814 4.09843 8.07722 4.03801 7.98659C3.97759 7.89596 3.88364 7.83305 3.77683 7.81169C3.67002 7.79032 3.5591 7.81227 3.46847 7.87268L2.92699 8.23366C3.03435 7.40669 3.30506 6.632 3.70669 5.94184C3.82075 5.74579 3.75431 5.4944 3.55828 5.38031C3.48818 5.33935 3.40752 5.32011 3.32648 5.32498Z" fill="#FFD400"/>
<path d="M6.57141 9.85742C6.34458 9.85742 6.1607 10.0413 6.1607 10.2681V11.5211C5.11054 11.6085 4.15308 12.0248 3.3924 12.669L2.50517 11.7818C2.43114 11.7077 2.33156 11.6646 2.22682 11.6615C2.21532 11.6613 2.20381 11.6615 2.19233 11.6623C2.09135 11.6678 1.99595 11.7104 1.9244 11.7818C1.76404 11.9422 1.76404 12.2022 1.9244 12.3626L2.81163 13.2499C2.16742 14.0105 1.75104 14.968 1.66372 16.0182H0.410714C0.183883 16.0182 0 16.202 0 16.4289C0 16.6557 0.183883 16.8396 0.410714 16.8396H1.66372C1.75105 17.8897 2.16742 18.8472 2.81163 19.6079L1.9244 20.4951C1.76404 20.6555 1.76404 20.9155 1.9244 21.0759C2.08479 21.2363 2.3448 21.2363 2.50519 21.0759L3.39242 20.1887C4.1531 20.8329 5.11056 21.2493 6.16071 21.3366V22.5896C6.16071 22.8164 6.3446 23.0003 6.57143 23.0003C6.79826 23.0003 6.98214 22.8164 6.98214 22.5896V21.3366C8.0323 21.2492 8.98975 20.8329 9.75044 20.1887L10.6377 21.0759C10.7981 21.2363 11.0581 21.2363 11.2185 21.0759C11.3788 20.9155 11.3788 20.6555 11.2185 20.4951L10.3312 19.6079C10.9754 18.8472 11.3918 17.8897 11.4791 16.8396H12.7321C12.959 16.8396 13.1429 16.6557 13.1429 16.4289C13.1429 16.202 12.959 16.0182 12.7321 16.0182H11.4791C11.3918 14.968 10.9754 14.0105 10.3312 13.2499L11.2185 12.3626C11.3788 12.2022 11.3788 11.9422 11.2185 11.7818C11.1444 11.7077 11.0448 11.6646 10.9401 11.6615C10.9283 11.6613 10.9166 11.6615 10.9048 11.6623C10.8041 11.668 10.709 11.7106 10.6377 11.7819L9.75045 12.6691C8.98977 12.0249 8.03231 11.6085 6.98216 11.5212V10.2682C6.98216 10.0413 6.79824 9.85742 6.57141 9.85742Z" fill="#FFD400"/>
</svg>
