<svg width="14" height="18" viewBox="0 0 14 18" fill="none" xmlns="http://www.w3.org/2000/svg">
<path d="M4.14392 3.75734H9.27076C9.56165 3.75734 9.79749 3.52151 9.79749 3.23061V1.68554C9.79749 1.39464 9.56165 1.15881 9.27076 1.15881H8.283C8.07329 0.488068 7.44624 0 6.70734 0C5.96711 0 5.3391 0.489859 5.13055 1.16246L4.14518 1.15881C3.85116 1.15881 3.61719 1.39615 3.61719 1.68554V3.23061C3.61719 3.52151 3.85302 3.75734 4.14392 3.75734Z" fill="white"/>
<path d="M11.7636 2.2825H10.8506V3.23062C10.8506 4.10193 10.1418 4.81081 9.27045 4.81081H4.14361C3.27226 4.81081 2.56342 4.10193 2.56342 3.23062V2.2825H1.65042C0.740372 2.2825 0 3.02287 0 3.93292V16.3286C0 17.2387 0.740372 17.9791 1.65042 17.9791H11.7636C12.6737 17.9791 13.4141 17.2387 13.4141 16.3286V3.93292C13.4141 3.02287 12.6737 2.2825 11.7636 2.2825ZM4.74057 6.1803H8.67349C8.96439 6.1803 9.20022 6.41614 9.20022 6.70704C9.20022 6.99793 8.96439 7.23377 8.67349 7.23377H4.74057C4.44968 7.23377 4.21384 6.99793 4.21384 6.70704C4.21384 6.41614 4.44968 6.1803 4.74057 6.1803ZM8.35745 8.67349C8.35745 8.96439 8.12162 9.20022 7.83072 9.20022H5.58334C5.29244 9.20022 5.05661 8.96439 5.05661 8.67349C5.05661 8.3826 5.29244 8.14676 5.58334 8.14676H7.83072C8.12162 8.14676 8.35745 8.3826 8.35745 8.67349ZM10.6399 15.9424H2.77411C2.48322 15.9424 2.24738 15.7065 2.24738 15.4156V10.64C2.24738 10.3491 2.48322 10.1132 2.77411 10.1132C3.06501 10.1132 3.30084 10.3491 3.30084 10.64V12.9225H3.45739L4.16749 12.4491C4.34444 12.3311 4.5749 12.3311 4.75184 12.4491L5.23535 12.7714L6.33463 11.6721C6.43334 11.5733 6.56731 11.5178 6.70703 11.5178H7.91679L9.73531 9.9591C10.0763 9.6667 10.6048 9.90991 10.6048 10.359V14.8889H10.6399C10.9308 14.8889 11.1667 15.1247 11.1667 15.4156C11.1667 15.7065 10.9308 15.9424 10.6399 15.9424Z" fill="white"/>
<path d="M8.11158 12.5713H6.92514L5.67482 13.8216C5.49732 13.9992 5.21913 14.0267 5.0102 13.8874L4.45959 13.5204L3.90898 13.8874C3.82246 13.9451 3.7208 13.9759 3.61682 13.9759H3.30078V14.8889H9.55131V11.5042L8.45438 12.4445C8.3589 12.5263 8.23733 12.5713 8.11158 12.5713Z" fill="white"/>
</svg>
