<svg width="26" height="23" viewBox="0 0 26 23" fill="none" xmlns="http://www.w3.org/2000/svg">
<path d="M10.527 11.623C10.5396 12.1867 10.667 12.7418 10.9014 13.2545C10.5874 13.1 10.3166 12.8702 10.1131 12.5855C9.90961 12.3008 9.77983 11.9701 9.73535 11.623H10.527Z" fill="#FFD400"/>
<path d="M10.9004 9.4541C10.666 9.96773 10.5386 10.5237 10.526 11.0882H9.72363C9.769 10.7396 9.9003 10.4078 10.1057 10.1226C10.3111 9.83734 10.5842 9.60763 10.9004 9.4541Z" fill="#FFD400"/>
<path d="M11.0645 11.623H12.613C12.5541 12.7624 12.1342 13.4764 11.8374 13.4764C11.5405 13.4764 11.1206 12.7624 11.0645 11.623Z" fill="#FFD400"/>
<path d="M12.613 11.0882H11.0645C11.1206 9.94626 11.5432 9.23218 11.8374 9.23218C12.1316 9.23218 12.5541 9.9516 12.613 11.0882Z" fill="#FFD400"/>
<path d="M13.1482 11.623H13.9505C13.9061 11.9698 13.7766 12.3002 13.5736 12.5848C13.3706 12.8694 13.1005 13.0995 12.7871 13.2545C13.0157 12.7404 13.1385 12.1856 13.1482 11.623Z" fill="#FFD400"/>
<path d="M13.9397 11.0882H13.1374C13.1242 10.5241 12.9978 9.96838 12.7656 9.4541C13.0803 9.60932 13.352 9.83955 13.5567 10.1245C13.7615 10.4095 13.893 10.7404 13.9397 11.0882Z" fill="#FFD400"/>
<path d="M16.7986 6.58985H8.57202V11.4226L5.89757 8.74813H5.57129V18.0686L7.73492 15.9076H15.4908V10.064L18.1064 12.6796V7.89498C18.1064 7.72336 18.0726 7.55343 18.0068 7.39491C17.9411 7.23639 17.8447 7.09239 17.7232 6.97116C17.6017 6.84994 17.4576 6.75386 17.2989 6.68843C17.1402 6.62299 16.9702 6.58949 16.7986 6.58985ZM11.8375 14.0114C11.3115 14.012 10.7972 13.8564 10.3596 13.5645C9.92201 13.2726 9.58086 12.8575 9.37932 12.3716C9.17778 11.8857 9.12491 11.351 9.2274 10.8351C9.32989 10.3191 9.58313 9.84521 9.95508 9.47327C10.327 9.10132 10.8009 8.84808 11.3169 8.74559C11.8328 8.6431 12.3675 8.69597 12.8534 8.89751C13.3393 9.09905 13.7544 9.4402 14.0463 9.87778C14.3382 10.3154 14.4938 10.8297 14.4933 11.3557C14.4918 12.0596 14.2116 12.7343 13.7138 13.232C13.2161 13.7298 12.5414 14.01 11.8375 14.0114Z" fill="#FFD400"/>
<path d="M4.21235 2.53799L5.19387 4.49837H2.8457L3.82455 2.53799C3.84252 2.50194 3.87018 2.47161 3.90443 2.4504C3.93868 2.4292 3.97817 2.41797 4.01845 2.41797C4.05873 2.41797 4.09822 2.4292 4.13247 2.4504C4.16672 2.47161 4.19438 2.50194 4.21235 2.53799Z" fill="#FFD400"/>
<path d="M6.88671 0H1.15269C0.846976 0 0.553785 0.121444 0.337614 0.337615C0.121444 0.553785 0 0.846976 0 1.15269V7.07124C0.000708234 7.37649 0.122464 7.669 0.338559 7.88459C0.554653 8.10018 0.847439 8.22126 1.15269 8.22126H6.12984L8.03672 10.1308V1.15269C8.03707 1.00144 8.00759 0.85161 7.94995 0.711775C7.89231 0.57194 7.80766 0.444848 7.70084 0.337776C7.59401 0.230704 7.46712 0.145755 7.32742 0.0877946C7.18772 0.0298339 7.03795 -4.08994e-07 6.88671 0ZM6.33577 6.18333C6.27228 6.21486 6.19887 6.21989 6.13167 6.19732C6.06448 6.17476 6.00898 6.12644 5.97739 6.06298L5.46123 5.03331H2.57817L2.062 6.06298C2.04705 6.09552 2.02572 6.12474 1.99926 6.14888C1.97281 6.17302 1.94178 6.19161 1.90801 6.20353C1.87423 6.21546 1.83841 6.22048 1.80266 6.21829C1.76691 6.21611 1.73197 6.20677 1.6999 6.19082C1.66783 6.17488 1.63929 6.15265 1.61597 6.12547C1.59265 6.09828 1.57503 6.06669 1.56415 6.03257C1.55328 5.99845 1.54936 5.96248 1.55265 5.92682C1.55593 5.89116 1.56635 5.85651 1.58327 5.82495L3.34574 2.29735C3.40951 2.17515 3.50555 2.07277 3.62343 2.00133C3.74131 1.92988 3.87651 1.89211 4.01435 1.89211C4.15219 1.89211 4.28739 1.92988 4.40527 2.00133C4.52314 2.07277 4.61919 2.17515 4.68296 2.29735L6.4481 5.82495C6.48022 5.88746 6.48644 5.96011 6.46542 6.02717C6.4444 6.09424 6.39783 6.15033 6.33577 6.18333Z" fill="#FFD400"/>
<path d="M23.8241 13.5167H18.1863L16.0254 11.3557V20.7511C16.025 20.9225 16.0586 21.0924 16.124 21.2509C16.1895 21.4094 16.2856 21.5534 16.4069 21.6747C16.5281 21.796 16.6722 21.8921 16.8307 21.9576C16.9892 22.023 17.159 22.0565 17.3305 22.0562H23.8241C23.9965 22.058 24.1675 22.0255 24.3272 21.9607C24.487 21.8958 24.6323 21.7999 24.7547 21.6785C24.8771 21.5571 24.9742 21.4126 25.0403 21.2534C25.1064 21.0942 25.1403 20.9234 25.1399 20.7511V14.8218C25.1403 14.6494 25.1064 14.4786 25.0403 14.3194C24.9742 14.1602 24.8771 14.0157 24.7547 13.8943C24.6323 13.7729 24.487 13.677 24.3272 13.6122C24.1675 13.5474 23.9965 13.5149 23.8241 13.5167ZM22.9175 16.1162H21.9092C21.865 17.1242 21.5905 18.1086 21.1068 18.9939C21.378 19.1904 21.6672 19.3606 21.9707 19.5021C22.0332 19.5313 22.0819 19.5834 22.1068 19.6477C22.1318 19.712 22.1309 19.7834 22.1044 19.8471C22.0743 19.9113 22.0199 19.9609 21.9531 19.9849C21.8864 20.009 21.8129 20.0056 21.7487 19.9755C21.4305 19.8241 21.1263 19.6451 20.8394 19.4406C20.5362 19.8998 20.1768 20.3194 19.7696 20.6895C19.7174 20.7373 19.6484 20.7624 19.5778 20.7594C19.5071 20.7564 19.4405 20.7255 19.3925 20.6735C19.3448 20.6213 19.3197 20.5523 19.3227 20.4816C19.3257 20.411 19.3566 20.3444 19.4086 20.2964C19.7891 19.946 20.1226 19.5478 20.4008 19.1116C19.9147 18.6993 19.4968 18.2128 19.1625 17.6701C19.1375 17.6403 19.1193 17.6054 19.1092 17.5679C19.099 17.5304 19.0972 17.4911 19.1038 17.4528C19.1104 17.4145 19.1252 17.3781 19.1473 17.3461C19.1695 17.3141 19.1983 17.2873 19.2318 17.2676C19.2653 17.2479 19.3027 17.2357 19.3414 17.232C19.3801 17.2282 19.4191 17.2329 19.4558 17.2457C19.4925 17.2586 19.5259 17.2793 19.5538 17.3064C19.5817 17.3335 19.6033 17.3663 19.6172 17.4026C19.9054 17.8691 20.2614 18.29 20.6736 18.6516C21.0861 17.8653 21.3207 16.9979 21.3609 16.1109H18.2345C18.1636 16.1109 18.0955 16.0827 18.0454 16.0326C17.9952 15.9824 17.967 15.9144 17.967 15.8434C17.967 15.7725 17.9952 15.7045 18.0454 15.6543C18.0955 15.6042 18.1636 15.576 18.2345 15.576H20.0585V14.7737C20.0585 14.7027 20.0866 14.6347 20.1368 14.5845C20.187 14.5344 20.255 14.5062 20.3259 14.5062C20.3968 14.5062 20.4649 14.5344 20.515 14.5845C20.5652 14.6347 20.5934 14.7027 20.5934 14.7737V15.576H22.9121C22.983 15.576 23.0511 15.6042 23.1012 15.6543C23.1514 15.7045 23.1795 15.7725 23.1795 15.8434C23.1795 15.9144 23.1514 15.9824 23.1012 16.0326C23.0511 16.0827 22.983 16.1109 22.9121 16.1109L22.9175 16.1162Z" fill="#FFD400"/>
<path d="M7.87678 19.5958C7.86695 19.5621 7.85057 19.5306 7.82858 19.5033C7.80659 19.4759 7.77942 19.4531 7.74863 19.4362C7.71783 19.4193 7.68401 19.4086 7.6491 19.4048C7.61419 19.401 7.57886 19.4041 7.54515 19.4139C7.51143 19.4238 7.47998 19.4402 7.4526 19.4621C7.42521 19.4841 7.40242 19.5113 7.38553 19.5421C7.36865 19.5729 7.35799 19.6067 7.35417 19.6416C7.35035 19.6765 7.35345 19.7119 7.36329 19.7456L7.63073 20.6308C5.84223 19.8302 4.3246 18.5277 3.26211 16.8812C2.19961 15.2348 1.63795 13.3153 1.64531 11.3558C1.64531 11.2849 1.61713 11.2169 1.56698 11.1667C1.51682 11.1166 1.4488 11.0884 1.37787 11.0884C1.30694 11.0884 1.23891 11.1166 1.18875 11.1667C1.1386 11.2169 1.11042 11.2849 1.11042 11.3558C1.10303 13.3912 1.67831 15.3861 2.76831 17.105C3.8583 18.8238 5.41748 20.1949 7.26166 21.0561L6.54223 21.2647C6.4713 21.2746 6.40722 21.3123 6.36408 21.3695C6.32095 21.4266 6.3023 21.4986 6.31223 21.5695C6.32216 21.6405 6.35986 21.7046 6.41704 21.7477C6.47421 21.7908 6.54618 21.8095 6.61711 21.7996C6.6706 21.7996 6.55828 21.8263 8.1255 21.3716C8.18775 21.3528 8.24099 21.3119 8.27527 21.2566C8.35016 21.1069 8.32341 21.1256 7.87678 19.5958Z" fill="#FFD400"/>
<path d="M15.9106 1.42824L16.6541 1.12603C16.6868 1.11303 16.7166 1.09373 16.7418 1.06923C16.767 1.04472 16.7871 1.01549 16.801 0.983207C16.8149 0.950922 16.8223 0.916214 16.8228 0.881065C16.8233 0.845915 16.8169 0.811013 16.8039 0.77835C16.7909 0.745687 16.7716 0.715903 16.7471 0.6907C16.7226 0.665496 16.6933 0.645366 16.6611 0.631459C16.6288 0.617552 16.5941 0.610139 16.5589 0.609646C16.5238 0.609152 16.4889 0.615586 16.4562 0.628581C14.9772 1.21963 14.9425 1.19556 14.9077 1.39347C14.889 1.50045 14.8729 1.42289 15.4667 2.92861C15.4929 2.99457 15.5443 3.04741 15.6095 3.0755C15.6747 3.10359 15.7484 3.10462 15.8143 3.07838C15.8803 3.05213 15.9331 3.00076 15.9612 2.93556C15.9893 2.87035 15.9904 2.79666 15.9641 2.7307L15.6378 1.90429C17.4368 2.61819 18.9934 3.8327 20.1234 5.40398C21.2534 6.97527 21.9094 8.83749 22.0137 10.7701C22.0158 10.8052 22.0248 10.8396 22.0402 10.8712C22.0556 10.9029 22.0771 10.9312 22.1034 10.9545C22.1297 10.9778 22.1604 10.9958 22.1936 11.0073C22.2269 11.0188 22.2621 11.0236 22.2972 11.0215C22.3323 11.0194 22.3667 11.0104 22.3983 10.995C22.43 10.9796 22.4583 10.9581 22.4816 10.9318C22.505 10.9055 22.5229 10.8748 22.5344 10.8416C22.5459 10.8083 22.5507 10.7731 22.5486 10.738C22.4402 8.71609 21.7584 6.76683 20.5829 5.11818C19.4074 3.46953 17.7868 2.18966 15.9106 1.42824Z" fill="#FFD400"/>
</svg>
