<svg width="29" height="33" viewBox="0 0 29 33" fill="none" xmlns="http://www.w3.org/2000/svg">
<path d="M8.53285 0C7.38114 0 6.43524 0.941732 6.43524 2.09345V2.34916C5.34315 2.33933 4.28135 2.34916 3.19423 2.34916C1.43441 2.34916 0 3.78254 0 5.54235V29.8021C0 31.5619 1.43441 32.9963 3.19423 32.9963H25.0809C26.8407 32.9963 28.2751 31.5619 28.2751 29.8021V5.54235C28.2751 3.78254 26.8407 2.34916 25.0809 2.34916H21.8357V2.09345C21.8357 0.941732 20.893 0 19.7412 0H8.53285ZM8.53285 1.0644H19.7412C20.3217 1.0644 20.7713 1.51299 20.7713 2.09345V3.42499C20.7713 4.00544 20.3217 4.45509 19.7412 4.45509H13.5472C12.8604 4.45509 12.9405 5.51948 13.5472 5.51948H19.7412C20.893 5.51948 21.8357 4.57671 21.8357 3.42499V3.41356H23.1163V25.504C23.1163 26.6925 22.1761 27.6338 20.9876 27.6338H7.28447C6.09591 27.6338 5.15879 26.6925 5.15879 25.504V3.41356H6.43524V3.42499C6.43524 4.57671 7.38113 5.51948 8.53285 5.51948H11.2884C11.927 5.51948 12.0056 4.45509 11.2884 4.45509H8.53285C7.9524 4.45509 7.49964 4.00544 7.49964 3.42499V2.09345C7.49964 1.51299 7.95239 1.0644 8.53285 1.0644ZM8.90601 7.87488C8.21047 7.87488 8.22146 8.93515 8.90601 8.94032H9.30724C10.017 8.94032 10.017 7.87488 9.30724 7.87488H8.90601ZM11.436 7.87488C10.731 7.87488 10.7503 8.93766 11.436 8.94032H19.3525C20.0623 8.94032 20.0623 7.87488 19.3525 7.87488H11.436ZM8.90601 10.909C8.21047 10.909 8.22146 11.9693 8.90601 11.9745H9.30724C10.017 11.9745 10.017 10.909 9.30724 10.909H8.90601ZM11.436 10.909C10.731 10.909 10.7503 11.9718 11.436 11.9745H19.3525C20.0623 11.9745 20.0623 10.909 19.3525 10.909H11.436ZM10.0463 14.4338C8.87616 14.4338 7.91646 15.3924 7.91646 16.5626V22.3887C7.91646 23.5589 8.87615 24.5186 10.0463 24.5186H17.7892C18.9593 24.5186 19.919 23.5589 19.919 22.3887V16.5626C19.919 15.3925 18.9593 14.4338 17.7892 14.4338H10.0463ZM10.0463 15.4982H15.1729V17.7684C15.1729 17.8977 15.0827 17.9846 14.9525 17.9846H12.8788C12.7486 17.9846 12.6626 17.8977 12.6626 17.7684V16.9202C12.6787 16.1947 11.5821 16.1947 11.5982 16.9202V17.7684C11.5982 18.4699 12.1781 19.049 12.8788 19.049H14.9525C15.6532 19.049 16.2373 18.4699 16.2373 17.7684V15.4982H17.7892C18.3881 15.4982 18.8536 15.9637 18.8536 16.5626V22.3887C18.8536 22.9876 18.388 23.4531 17.7892 23.4531H10.0463C9.44744 23.4531 8.98085 22.9876 8.98085 22.3887V16.5626C8.98085 15.9637 9.44743 15.4982 10.0463 15.4982Z" fill="#414141"/>
</svg>
