<svg width="26" height="26" viewBox="0 0 26 26" fill="none" xmlns="http://www.w3.org/2000/svg">
<path d="M0 21.5814H5.22859V22.9151H0V21.5814ZM1.04528 19.2969C0.917465 20.0484 0.826668 20.5276 0.764359 20.8305H4.63237C4.68178 20.3202 4.87246 19.4097 5.57883 18.6663C5.99026 18.2329 6.13961 17.288 6.28357 16.3738C6.42754 15.4623 6.57632 14.5196 6.98938 13.8063C7.81818 12.3774 8.12652 11.2698 7.81498 10.8428C7.69199 10.6752 7.50989 10.5947 7.31651 10.6237C6.89594 10.6865 6.47532 11.2107 6.19013 12.0261C6.10904 12.2566 6.03114 12.4875 5.95593 12.711C5.50255 14.0549 5.14485 15.1168 4.43153 15.3806C4.13451 15.4902 3.81971 15.4477 3.49634 15.2543C3.31962 15.1491 3.17296 15.0728 3.05586 15.011C2.76473 14.859 2.53536 14.7392 2.41937 14.4346C2.32964 14.1983 2.33076 13.9184 2.33345 13.3061C2.33345 13.1944 2.33401 13.0719 2.33401 12.936H2.33563V8.82249C2.22605 8.87403 2.14764 8.94172 2.10199 9.02663C1.67497 9.82105 0.482473 13.0649 0.470133 13.0971C0.467441 13.1057 0.463684 13.1138 0.460484 13.1218C0.45566 13.132 -0.0261524 14.2391 0.43093 15.0604C1.10815 16.2825 1.31493 17.7075 1.04528 19.2969ZM20.7714 21.5814V22.9151H26V21.5814H20.7714ZM21.5696 15.3806C20.8547 15.1163 20.4964 14.0511 20.0425 12.7029C19.9684 12.4821 19.8916 12.2538 19.8116 12.0261C19.5258 11.2101 19.1042 10.6859 18.6836 10.6236C18.4908 10.5951 18.3092 10.6751 18.1862 10.8428C17.8752 11.2693 18.1835 12.3774 19.0107 13.8062C19.4248 14.5201 19.5736 15.4633 19.7171 16.3759C19.8611 17.2891 20.0098 18.2334 20.4213 18.6663C21.1287 19.4098 21.3188 20.3202 21.3677 20.8305H25.2373C25.175 20.5275 25.0842 20.0484 24.9564 19.2969C24.6867 17.7075 24.893 16.2825 25.5709 15.061C26.028 14.2392 25.5462 13.1321 25.5413 13.1208C25.5376 13.1133 25.5343 13.1052 25.5317 13.0972C25.5194 13.065 24.3269 9.82115 23.8982 9.02724C23.8526 8.94238 23.7747 8.87413 23.6656 8.8231V9.8829C23.6656 10.3046 23.6651 10.7257 23.6651 11.1474C23.6651 11.7431 23.6656 12.3393 23.6661 12.9361C23.6661 13.0741 23.6667 13.1987 23.6672 13.3116C23.6693 13.9217 23.671 14.2 23.5807 14.4358C23.4653 14.7398 23.2359 14.8596 22.9453 15.0116C22.8282 15.0729 22.6821 15.1491 22.5054 15.2544C22.182 15.4477 21.8672 15.4902 21.5696 15.3806ZM13.2278 8.88866L15.6836 10.7617V3.08477H10.3175V10.7611L12.7722 8.88861C12.9066 8.78603 13.0929 8.78603 13.2278 8.88866ZM18.9757 16.4925C18.8425 15.6487 18.705 14.7758 18.3612 14.1828C17.3218 12.3871 17.0592 11.1146 17.5802 10.4002C17.8692 10.0053 18.3225 9.81145 18.7936 9.88128C19.2115 9.94303 19.992 10.2718 20.52 11.778C20.6017 12.01 20.679 12.241 20.7542 12.4634C21.0814 13.4351 21.452 14.5368 21.8301 14.6764C21.8602 14.6877 21.9408 14.7172 22.1207 14.6098C22.3152 14.4937 22.4715 14.4121 22.5971 14.346C22.7873 14.2466 22.8662 14.2031 22.8791 14.1687C22.9194 14.0635 22.9183 13.7653 22.9162 13.3146C22.9156 13.2067 22.9151 13.088 22.9151 12.9575C22.9141 11.932 22.9146 10.9072 22.9146 9.88285L22.9151 3.08472H16.4345V11.52C16.4345 11.6624 16.3534 11.7929 16.2255 11.8563C16.1729 11.8821 16.1159 11.895 16.059 11.895C15.9784 11.895 15.8984 11.8692 15.8318 11.8182L13 9.65891L10.1703 11.8182C10.0565 11.9047 9.90387 11.9197 9.77605 11.8564C9.64823 11.793 9.56709 11.6625 9.56709 11.5201V3.08477H3.08643V12.936H3.08481C3.08481 13.073 3.08425 13.1971 3.08374 13.3093C3.08212 13.7621 3.08054 14.0618 3.12081 14.1677C3.13422 14.2026 3.21318 14.2466 3.40336 14.346C3.52904 14.4115 3.68591 14.4937 3.88086 14.6098C4.06027 14.7172 4.14086 14.6877 4.17148 14.6764C4.54802 14.5373 4.91811 13.4394 5.24469 12.4709C5.3204 12.2458 5.39886 12.0127 5.48158 11.778C6.00742 10.2734 6.78737 9.94359 7.2053 9.88128C7.67691 9.8109 8.13135 10.0048 8.42085 10.3996C8.94293 11.1151 8.67973 12.3876 7.63877 14.1827C7.29605 14.7747 7.15858 15.647 7.02533 16.4908C6.85557 17.5657 6.69551 18.5803 6.12295 19.1835C5.59711 19.7368 5.43593 20.4216 5.38708 20.8304H5.60407C5.81141 20.8304 5.97954 20.9986 5.97954 21.2059V22.9151H20.0205V21.2059C20.0205 20.9986 20.1886 20.8304 20.396 20.8304H20.6119C20.5619 20.4195 20.3992 19.7325 19.8771 19.1835C19.305 18.5809 19.1449 17.5668 18.9757 16.4925Z" fill="#FFD400"/>
</svg>
