<svg width="36" height="36" viewBox="0 0 36 36" fill="none" xmlns="http://www.w3.org/2000/svg">
<g filter="url(#filter0_d_266_6093)">
<path d="M14.2306 18.2202C14.1582 21.1367 17.654 23.0043 20.0157 21.3902C23.1439 19.4182 21.7425 14.4585 17.9955 14.4602C16.998 14.4606 16.0413 14.8567 15.3355 15.5616C14.6296 16.2665 14.2323 17.2227 14.2306 18.2202Z" fill="#FFD400"/>
<path d="M23.5006 22.7451C22.9186 22.2598 21.8699 22.027 21.1606 21.7701C20.288 22.5463 19.1609 22.9752 17.993 22.9752C16.8252 22.9752 15.698 22.5463 14.8255 21.77C14.8235 21.7719 13.7083 22.147 13.7055 22.1451C13.0012 22.3216 12.3758 22.7275 11.9277 23.2987C11.4795 23.87 11.2343 24.5741 11.2305 25.3001V26.7201C11.2319 27.06 11.3679 27.3855 11.6087 27.6254C11.8495 27.8653 12.1756 28 12.5155 28.0001H23.4706C23.7975 28.001 24.1124 27.8766 24.3505 27.6525C24.5886 27.4284 24.7318 27.1216 24.7506 26.7951C24.7547 26.7703 24.7564 26.7452 24.7556 26.7201V25.3001C24.7564 24.8065 24.6437 24.3193 24.4261 23.8762C24.2084 23.4332 23.8918 23.0461 23.5006 22.7451Z" fill="#FFD400"/>
<path d="M30.1448 21.9451L29.3898 21.6951C28.7997 22.2962 28.0397 22.7022 27.212 22.8587C26.3843 23.0151 25.5285 22.9144 24.7598 22.5701C25.4067 23.3321 25.7597 24.3005 25.7548 25.3001V26.7201C25.7556 26.7452 25.7539 26.7703 25.7498 26.7951H30.8698C31.1693 26.7946 31.4565 26.6753 31.6683 26.4635C31.8801 26.2517 31.9993 25.9646 31.9998 25.6651V24.5201C32.0005 23.9504 31.8217 23.3949 31.4886 22.9327C31.1556 22.4704 30.6854 22.1248 30.1448 21.9451Z" fill="#FFD400"/>
<path d="M24.5906 21.3251C26.5348 22.8518 29.6465 21.3192 29.5756 18.8C29.576 18.2644 29.439 17.7377 29.1778 17.2701C28.9166 16.8025 28.5398 16.4097 28.0836 16.1292C27.6273 15.8486 27.1068 15.6898 26.5716 15.6677C26.0365 15.6456 25.5046 15.7611 25.0268 16.0032C24.5491 16.2452 24.1413 16.6057 23.8425 17.0501C23.5437 17.4946 23.3638 18.0083 23.32 18.5421C23.2763 19.0759 23.3701 19.612 23.5926 20.0993C23.815 20.5865 24.1586 21.0085 24.5906 21.3251Z" fill="#FFD400"/>
<path d="M7.71008 21.3251C9.65187 22.8514 12.7611 21.3168 12.6901 18.8C12.6899 17.9695 12.3602 17.1729 11.7734 16.5852C11.1866 15.9975 10.3906 15.6666 9.56009 15.6651C6.54298 15.6525 5.28839 19.5956 7.71008 21.3251Z" fill="#FFD400"/>
<path d="M6.61002 21.6951L5.85502 21.9451C5.31441 22.1248 4.84419 22.4704 4.51119 22.9327C4.17818 23.3949 3.99931 23.9504 4 24.5201V25.6651C4.00054 25.9646 4.11977 26.2517 4.33157 26.4635C4.54337 26.6753 4.83048 26.7946 5.13001 26.7951H10.2351C10.1773 25.3368 10.1738 23.7089 11.2201 22.5801C10.4526 22.9178 9.60057 23.0141 8.77713 22.856C7.95368 22.6979 7.19783 22.293 6.61002 21.6951Z" fill="#FFD400"/>
<path d="M16.2507 11.0101L17.5957 12.8001C17.6425 12.8619 17.7029 12.9121 17.7723 12.9466C17.8417 12.9812 17.9182 12.9991 17.9957 12.9991C18.0732 12.9991 18.1497 12.9812 18.2191 12.9466C18.2885 12.9121 18.349 12.8619 18.3957 12.8001L19.7357 11.0101C25.7785 8.92338 24.4065 0.122191 17.9956 0C11.5784 0.122406 10.2072 8.92146 16.2507 11.0101ZM17.8757 1.95502C18.07 1.95805 18.2553 2.03735 18.3916 2.1758C18.5279 2.31425 18.6043 2.50075 18.6043 2.69504C18.6043 2.88932 18.5279 3.07582 18.3915 3.21426C18.2552 3.35271 18.07 3.432 17.8757 3.43503C17.6814 3.43199 17.4962 3.35269 17.3598 3.21424C17.2235 3.07579 17.1472 2.88929 17.1472 2.69501C17.1472 2.50072 17.2236 2.31423 17.3599 2.17578C17.4962 2.03734 17.6815 1.95804 17.8757 1.95502ZM17.2757 5.06504C17.1447 5.06269 17.0198 5.00898 16.9279 4.91546C16.8361 4.82195 16.7846 4.69611 16.7846 4.56502C16.7846 4.43394 16.8361 4.3081 16.9279 4.21459C17.0198 4.12108 17.1447 4.06737 17.2757 4.06503C17.7085 4.08856 18.4726 3.90469 18.4957 4.56504V7.95507C18.8474 7.9139 19.2079 8.05239 19.2157 8.45507C19.2154 8.58756 19.1625 8.71452 19.0689 8.8082C18.9752 8.90189 18.8482 8.95469 18.7157 8.95507H17.2757C17.21 8.95531 17.1449 8.94253 17.0841 8.91749C17.0233 8.89244 16.9681 8.85562 16.9216 8.80914C16.8752 8.76267 16.8383 8.70745 16.8133 8.64669C16.7883 8.58592 16.7755 8.5208 16.7757 8.45507C16.7835 8.05013 17.1398 7.91497 17.4957 7.9551V5.06504H17.2757Z" fill="#FFD400"/>
</g>
<defs>
<filter id="filter0_d_266_6093" x="0" y="0" width="36" height="36.0002" filterUnits="userSpaceOnUse" color-interpolation-filters="sRGB">
<feFlood flood-opacity="0" result="BackgroundImageFix"/>
<feColorMatrix in="SourceAlpha" type="matrix" values="0 0 0 0 0 0 0 0 0 0 0 0 0 0 0 0 0 0 127 0" result="hardAlpha"/>
<feOffset dy="4"/>
<feGaussianBlur stdDeviation="2"/>
<feComposite in2="hardAlpha" operator="out"/>
<feColorMatrix type="matrix" values="0 0 0 0 0 0 0 0 0 0 0 0 0 0 0 0 0 0 0.25 0"/>
<feBlend mode="normal" in2="BackgroundImageFix" result="effect1_dropShadow_266_6093"/>
<feBlend mode="normal" in="SourceGraphic" in2="effect1_dropShadow_266_6093" result="shape"/>
</filter>
</defs>
</svg>
