<svg width="19" height="22" viewBox="0 0 19 22" fill="none" xmlns="http://www.w3.org/2000/svg">
<path d="M9.03918 10.5975C10.4951 10.5975 11.7558 10.0753 12.7859 9.0451C13.816 8.01503 14.3381 6.75467 14.3381 5.29859C14.3381 3.84302 13.816 2.58249 12.7857 1.55208C11.7555 0.522172 10.4949 0 9.03918 0C7.58311 0 6.32274 0.522172 5.29266 1.55225C4.26258 2.58233 3.74023 3.84286 3.74023 5.29859C3.74023 6.75467 4.26258 8.0152 5.29282 9.04527C6.32307 10.0752 7.58361 10.5975 9.03918 10.5975Z" fill="#FFD400"/>
<path d="M18.3103 16.917C18.2806 16.4883 18.2205 16.0207 18.1321 15.5269C18.0428 15.0294 17.9278 14.5591 17.7902 14.1292C17.648 13.685 17.4546 13.2462 17.2156 12.8257C16.9676 12.3893 16.6762 12.0093 16.3492 11.6966C16.0073 11.3695 15.5887 11.1065 15.1046 10.9146C14.6222 10.7238 14.0876 10.6271 13.5158 10.6271C13.2912 10.6271 13.074 10.7193 12.6545 10.9924C12.3964 11.1607 12.0944 11.3554 11.7574 11.5708C11.4692 11.7544 11.0788 11.9264 10.5966 12.0822C10.1261 12.2344 9.64839 12.3116 9.1769 12.3116C8.70542 12.3116 8.22789 12.2344 7.75691 12.0822C7.27519 11.9266 6.88477 11.7545 6.59692 11.5709C6.26307 11.3576 5.96094 11.1629 5.69893 10.9922C5.27998 10.7191 5.06262 10.627 4.83804 10.627C4.26602 10.627 3.73159 10.7238 3.24936 10.9148C2.76563 11.1063 2.34685 11.3693 2.0046 11.6968C1.6778 12.0097 1.38625 12.3895 1.13851 12.8257C0.899663 13.2462 0.706303 13.6848 0.563968 14.1294C0.426501 14.5593 0.311525 15.0294 0.22223 15.5269C0.133775 16.02 0.0736851 16.4878 0.0439761 16.9175C0.0147706 17.3385 0 17.7754 0 18.2167C0 19.3651 0.365069 20.2948 1.08497 20.9804C1.79597 21.657 2.73676 22.0003 3.88081 22.0003H14.474C15.6181 22.0003 16.5585 21.6572 17.2697 20.9804C17.9897 20.2953 18.3548 19.3654 18.3548 18.2165C18.3546 17.7732 18.3397 17.336 18.3103 16.917Z" fill="#FFD400"/>
</svg>
