<svg width="23" height="23" viewBox="0 0 23 23" fill="none" xmlns="http://www.w3.org/2000/svg">
<path fill-rule="evenodd" clip-rule="evenodd" d="M9.99849 7.61823L14.9896 11.1445C15.0367 11.1778 15.092 11.1975 15.1496 11.2015C15.2071 11.2055 15.2646 11.1936 15.3158 11.1671C15.3671 11.1406 15.41 11.1005 15.44 11.0512C15.4699 11.0019 15.4858 10.9453 15.4857 10.8876V9.36155H20.7536C20.837 9.36155 20.9169 9.32842 20.9759 9.26945C21.0349 9.21048 21.068 9.1305 21.068 9.04711V5.67595C21.068 5.59255 21.0349 5.51257 20.9759 5.4536C20.9169 5.39463 20.837 5.3615 20.7536 5.3615H15.4857V3.83514C15.4857 3.77749 15.4699 3.72094 15.4399 3.67169C15.4099 3.62244 15.367 3.58238 15.3158 3.55589C15.2645 3.52939 15.207 3.51749 15.1495 3.52148C15.092 3.52547 15.0367 3.5452 14.9896 3.57851L9.99849 7.10478C9.95741 7.13383 9.92391 7.1723 9.90078 7.21698C9.87765 7.26165 9.86558 7.31122 9.86558 7.36153C9.86558 7.41183 9.87765 7.4614 9.90078 7.50608C9.92391 7.55075 9.95741 7.58923 9.99849 7.61827V7.61823ZM22.3433 16.8771C22.5534 16.9998 22.7257 17.178 22.8413 17.3922C22.9568 17.6064 23.0111 17.8482 22.9981 18.0912C22.958 18.9069 22.7919 19.7114 22.5058 20.4763C22.4949 20.5051 22.4802 20.5323 22.462 20.5571C21.4799 21.8545 19.7499 22.667 17.3202 22.9716C17.1769 22.9901 17.0326 22.9996 16.8881 23C16.6811 22.9994 16.4746 22.9794 16.2713 22.9402C12.4859 22.2309 8.76002 20.1996 5.7805 17.2195C2.80039 14.2399 0.769064 10.5142 0.0597167 6.7288C-0.00740549 6.38304 -0.0180248 6.02869 0.028272 5.67954C0.332881 3.25005 1.14555 1.52007 2.44287 0.538463C2.46749 0.519781 2.49473 0.504841 2.52372 0.494127C3.28849 0.207815 4.093 0.041749 4.90862 0.00184126C5.15165 -0.0109818 5.3935 0.0433631 5.60768 0.158916C5.82186 0.27447 6.00007 0.446769 6.12279 0.656919L8.74393 5.06305C8.90612 5.33022 8.96896 5.646 8.9214 5.9549C8.87384 6.2638 8.71893 6.54606 8.48389 6.75207L6.4 8.61178C6.28656 8.70928 6.20752 8.84072 6.17458 8.98663C6.14165 9.13255 6.15657 9.28519 6.21713 9.42197C7.6103 12.7462 10.2541 15.3898 13.5784 16.7828C13.7151 16.8433 13.8677 16.8582 14.0135 16.8252C14.1594 16.7923 14.2907 16.7133 14.3882 16.5999L16.2479 14.516C16.454 14.2811 16.7362 14.1263 17.0451 14.0787C17.354 14.0312 17.6697 14.0939 17.9369 14.256L22.3433 16.8771Z" fill="#FFD400"/>
</svg>
