<svg width="27" height="27" viewBox="0 0 27 27" fill="none" xmlns="http://www.w3.org/2000/svg">
<path d="M22.2971 1.07796C22.0379 0.818772 21.6481 0.741242 21.3094 0.881511C20.9708 1.02178 20.75 1.35224 20.75 1.71878V2.62503H15.3125C14.812 2.62503 14.4062 3.03076 14.4062 3.53128V7.15628C14.4062 7.65678 14.812 8.0625 15.3125 8.0625H20.75V8.96875C20.75 9.33533 20.9708 9.66575 21.3094 9.80603C21.6481 9.94632 22.0379 9.86875 22.2971 9.60956L25.9221 5.9846C26.2759 5.63068 26.2759 5.05688 25.9221 4.70296L22.2971 1.07796Z" fill="#FFD400"/>
<path d="M4.70293 17.3904C4.96212 17.1313 5.35192 17.0538 5.69055 17.194C6.0292 17.3343 6.25 17.6648 6.25 18.0313V18.9375H11.6875C12.188 18.9375 12.5938 19.3432 12.5938 19.8438V23.4688C12.5938 23.9693 12.188 24.375 11.6875 24.375H6.25V25.2813C6.25 25.6478 6.0292 25.9783 5.69055 26.1185C5.35192 26.2588 4.96212 26.1813 4.70293 25.9221L1.07793 22.2971C0.724023 21.9432 0.724023 21.3693 1.07793 21.0154L4.70293 17.3904Z" fill="#FFD400"/>
<path fill-rule="evenodd" clip-rule="evenodd" d="M13.7425 2.625C13.5883 2.89159 13.5 3.20111 13.5 3.53125V7.15625C13.5 8.15727 14.3115 8.96872 15.3125 8.96872H19.8438C19.8438 9.70188 20.2854 10.3627 20.9626 10.6433C21.6399 10.9239 22.4195 10.7687 22.9379 10.2503L24.375 8.8133V21.6562C24.375 23.1578 23.1578 24.375 21.6562 24.375H13.2575C13.4117 24.1084 13.5 23.7989 13.5 23.4687V19.8437C13.5 18.8428 12.6885 18.0312 11.6875 18.0312H7.15625C7.15625 17.2982 6.71465 16.6372 6.03737 16.3567C5.36008 16.0762 4.58049 16.2312 4.06212 16.7496L2.625 18.1867V5.34375C2.625 3.84223 3.84223 2.625 5.34375 2.625H13.7425ZM17.125 19.8437C16.6245 19.8437 16.2188 20.2495 16.2188 20.75C16.2188 21.2505 16.6245 21.6562 17.125 21.6562H20.75C21.2505 21.6562 21.6562 21.2505 21.6562 20.75C21.6562 20.2495 21.2505 19.8437 20.75 19.8437H17.125ZM16.2188 18.0312C16.2188 17.5307 16.6245 17.125 17.125 17.125H20.75C21.2505 17.125 21.6562 17.5307 21.6562 18.0312C21.6562 18.5317 21.2505 18.9375 20.75 18.9375H17.125C16.6245 18.9375 16.2188 18.5317 16.2188 18.0312Z" fill="#FFD400"/>
</svg>
