<svg width="26" height="26" viewBox="0 0 26 26" fill="none" xmlns="http://www.w3.org/2000/svg">
<path fill-rule="evenodd" clip-rule="evenodd" d="M4.46875 24.1718C4.2445 24.1718 4.0625 23.9898 4.0625 23.7656C4.0625 23.5413 4.2445 23.3593 4.46875 23.3593H13.4063C13.6305 23.3593 13.8125 23.5413 13.8125 23.7656C13.8125 23.9898 13.6305 24.1718 13.4063 24.1718" fill="#414141"/>
<path fill-rule="evenodd" clip-rule="evenodd" d="M16.6562 24.1718C16.432 24.1718 16.25 23.9898 16.25 23.7656C16.25 23.5413 16.432 23.3593 16.6562 23.3593H21.5312C21.7555 23.3593 21.9375 23.5413 21.9375 23.7656C21.9375 23.9898 21.7555 24.1718 21.5312 24.1718" fill="#414141"/>
<path fill-rule="evenodd" clip-rule="evenodd" d="M2.43751 23.7656C2.43751 23.9898 2.6195 24.1718 2.84375 24.1718C3.068 24.1718 3.25 23.9898 3.25 23.7656C3.25 23.5413 3.068 23.3593 2.84375 23.3593C2.6195 23.3593 2.43751 23.5413 2.43751 23.7656Z" fill="#414141"/>
<path fill-rule="evenodd" clip-rule="evenodd" d="M14.625 23.7656C14.625 23.9898 14.807 24.1718 15.0312 24.1718C15.2555 24.1718 15.4375 23.9898 15.4375 23.7656C15.4375 23.5413 15.2555 23.3593 15.0312 23.3593C14.807 23.3593 14.625 23.5413 14.625 23.7656Z" fill="#414141"/>
<path fill-rule="evenodd" clip-rule="evenodd" d="M22.75 23.7656C22.75 23.9898 22.932 24.1718 23.1562 24.1718C23.3805 24.1718 23.5625 23.9898 23.5625 23.7656C23.5625 23.5413 23.3805 23.3593 23.1562 23.3593C22.932 23.3593 22.75 23.5413 22.75 23.7656Z" fill="#414141"/>
<path fill-rule="evenodd" clip-rule="evenodd" d="M15.2117 4.52312C16.6384 5.94988 16.6384 8.26672 15.2117 9.69388C15.0528 9.85231 14.7957 9.85231 14.6368 9.69388C14.4784 9.53503 14.4784 9.27787 14.6368 9.11903C15.7467 8.00956 15.7467 6.20744 14.6368 5.09756C14.4784 4.93912 14.4784 4.68155 14.6368 4.52312C14.7957 4.36427 15.0528 4.36427 15.2117 4.52312Z" fill="#414141"/>
<path fill-rule="evenodd" clip-rule="evenodd" d="M16.6368 10.5446C18.4169 8.47065 18.3251 5.33846 16.3605 3.37384C14.2996 1.31293 10.9529 1.31293 8.89159 3.37384C6.83068 5.43516 6.83068 8.78184 8.89159 10.8427C10.8562 12.8074 13.9884 12.8992 16.0623 11.1194C16.4489 11.506 16.8355 11.8926 17.2222 12.2792C16.7464 12.755 16.7464 13.5268 17.2222 14.0026C17.9867 14.7671 19.3306 16.111 20.0948 16.8756C20.5709 17.3513 21.3423 17.3513 21.8185 16.8756C22.0033 16.6903 22.2081 16.4856 22.3929 16.3007C22.869 15.8246 22.869 15.0531 22.3929 14.577L19.5203 11.7044C19.0446 11.2287 18.2727 11.2287 17.797 11.7044C17.4105 11.3194 17.0232 10.9311 16.6368 10.5446ZM9.46644 3.94828C7.7224 5.6923 7.7224 8.52428 9.46644 10.2683C11.2101 12.0123 14.042 12.0123 15.7861 10.2683C17.5301 8.52428 17.5301 5.6923 15.7861 3.94828C14.042 2.20465 11.2101 2.20465 9.46644 3.94828Z" fill="#414141"/>
<path fill-rule="evenodd" clip-rule="evenodd" d="M15.4374 13.6093H5.68743C5.57975 13.6093 5.47658 13.6519 5.4002 13.7283L3.36896 15.7596C3.25277 15.8758 3.21823 16.0505 3.28121 16.2024C3.34374 16.3539 3.49205 16.4531 3.65617 16.4531H5.28117V20.9218C5.28117 21.8192 6.00877 22.5468 6.90617 22.5468C6.90617 22.5468 12.7749 22.5631 14.2187 22.5631C15.1165 22.5631 15.8437 21.8355 15.8437 20.9381V16.453H17.4687C17.6332 16.453 17.7811 16.3539 17.8441 16.2024C17.907 16.0505 17.872 15.8758 17.7558 15.7596L15.7246 13.7283C15.6486 13.652 15.5455 13.6093 15.4374 13.6093ZM10.1562 21.7343V15.2343C10.1562 15.0101 10.3382 14.8281 10.5624 14.8281C10.7867 14.8281 10.9687 15.0101 10.9687 15.2343V21.7343H10.1562ZM5.85602 14.4218H9.58174L8.36298 15.6406H4.63727L5.85602 14.4218ZM15.2692 14.4218L16.488 15.6406H12.7623L11.5435 14.4218" fill="#414141"/>
</svg>
