<svg width="33" height="28" viewBox="0 0 33 28" fill="none" xmlns="http://www.w3.org/2000/svg">
<path d="M8.4 7.84H1.68C0.752162 7.84 0 8.59216 0 9.52V10.64C0 11.5678 0.752162 12.32 1.68 12.32H8.4C9.32784 12.32 10.08 11.5678 10.08 10.64V9.52C10.08 8.59216 9.32784 7.84 8.4 7.84Z" fill="#414141"/>
<path d="M30.8 0H1.68C0.752162 0 0 0.752162 0 1.68V2.8C0 3.72784 0.752162 4.48 1.68 4.48H30.8C31.7278 4.48 32.48 3.72784 32.48 2.8V1.68C32.48 0.752162 31.7278 0 30.8 0Z" fill="#414141"/>
<path d="M12.88 23.52H1.68C0.752162 23.52 0 24.2722 0 25.2V26.32C0 27.2478 0.752162 28 1.68 28H12.88C13.8078 28 14.56 27.2478 14.56 26.32V25.2C14.56 24.2722 13.8078 23.52 12.88 23.52Z" fill="#414141"/>
<path d="M7.84 15.68H1.68C0.752162 15.68 0 16.4322 0 17.36V18.48C0 19.4078 0.752162 20.16 1.68 20.16H7.84C8.76784 20.16 9.52 19.4078 9.52 18.48V17.36C9.52 16.4322 8.76784 15.68 7.84 15.68Z" fill="#414141"/>
<path d="M20.1601 9.52C19.0525 9.52 17.9698 9.84843 17.0489 10.4638C16.128 11.0791 15.4102 11.9537 14.9863 12.977C14.5625 14.0002 14.4516 15.1262 14.6677 16.2125C14.8837 17.2988 15.4171 18.2966 16.2003 19.0798C16.9834 19.863 17.9813 20.3963 19.0676 20.6124C20.1538 20.8285 21.2798 20.7176 22.3031 20.2937C23.3264 19.8699 24.201 19.1521 24.8163 18.2312C25.4316 17.3103 25.7601 16.2276 25.7601 15.12C25.7584 13.6353 25.1679 12.2119 24.1181 11.162C23.0682 10.1122 21.6448 9.52163 20.1601 9.52ZM20.1601 11.76C19.2692 11.7609 18.4151 12.1152 17.7852 12.7451C17.1552 13.375 16.801 14.2291 16.8001 15.12C16.8001 15.2685 16.7411 15.411 16.636 15.516C16.531 15.621 16.3886 15.68 16.2401 15.68C16.0915 15.68 15.9491 15.621 15.8441 15.516C15.7391 15.411 15.6801 15.2685 15.6801 15.12C15.6814 13.9322 16.1538 12.7935 16.9937 11.9536C17.8336 11.1138 18.9723 10.6413 20.1601 10.64C20.3086 10.64 20.451 10.699 20.556 10.804C20.6611 10.909 20.7201 11.0515 20.7201 11.2C20.7201 11.3485 20.6611 11.491 20.556 11.596C20.451 11.701 20.3086 11.76 20.1601 11.76Z" fill="#414141"/>
<path d="M20.1598 7.28C18.6092 7.28 17.0934 7.73981 15.8042 8.60128C14.5149 9.46275 13.51 10.6872 12.9166 12.1198C12.3232 13.5523 12.168 15.1287 12.4705 16.6495C12.773 18.1703 13.5197 19.5673 14.6161 20.6637C15.7126 21.7602 17.1095 22.5068 18.6303 22.8094C20.1511 23.1119 21.7275 22.9566 23.1601 22.3632C24.5926 21.7698 25.8171 20.7649 26.6785 19.4757C27.54 18.1864 27.9998 16.6706 27.9998 15.12C27.9976 13.0414 27.1709 11.0485 25.7011 9.57874C24.2313 8.10893 22.2384 7.28222 20.1598 7.28ZM20.1598 21.84C18.8307 21.84 17.5315 21.4459 16.4264 20.7075C15.3213 19.9691 14.46 18.9195 13.9514 17.6916C13.4427 16.4637 13.3097 15.1125 13.569 13.809C13.8282 12.5054 14.4683 11.308 15.4081 10.3682C16.3479 9.42843 17.5453 8.78841 18.8488 8.52912C20.1524 8.26983 21.5035 8.40291 22.7315 8.91153C23.9594 9.42015 25.0089 10.2815 25.7473 11.3866C26.4857 12.4917 26.8798 13.7909 26.8798 15.12C26.8779 16.9017 26.1693 18.6098 24.9095 19.8696C23.6496 21.1295 21.9415 21.8381 20.1598 21.84Z" fill="#414141"/>
<path d="M26.8706 21.0375C26.6228 21.3178 26.3579 21.5826 26.0776 21.8305L26.8913 22.6442L27.6843 21.8512L26.8706 21.0375Z" fill="#414141"/>
<path d="M29.2677 21.8518L26.8916 24.2278L29.0521 26.3878C29.3721 26.6932 29.7975 26.8636 30.2398 26.8636C30.6822 26.8636 31.1076 26.6932 31.4276 26.3878C31.7426 26.0727 31.9195 25.6455 31.9195 25.2C31.9195 24.7545 31.7426 24.3273 31.4276 24.0122L29.2677 21.8518Z" fill="#414141"/>
</svg>
