<svg width="32" height="33" viewBox="0 0 32 33" fill="none" xmlns="http://www.w3.org/2000/svg">
<path d="M1.4076 14.2551L28.0226 0.948317C28.4894 0.713324 29.0184 0.631792 29.5343 0.715363C30.0501 0.798934 30.5264 1.04334 30.895 1.41368L30.9221 1.44161C31.2916 1.8204 31.5301 2.30748 31.6029 2.83159C31.6756 3.3557 31.5788 3.88933 31.3264 4.35443L25.4667 15.2366L12.371 15.2369C12.2076 15.2369 12.0458 15.2691 11.8948 15.3317C11.7439 15.3942 11.6067 15.4859 11.4911 15.6014C11.3756 15.717 11.2839 15.8541 11.2214 16.0051C11.1589 16.1561 11.1267 16.3179 11.1267 16.4813C11.1267 16.6447 11.1589 16.8065 11.2214 16.9575C11.2839 17.1085 11.3756 17.2456 11.4911 17.3612C11.6067 17.4767 11.7439 17.5684 11.8948 17.6309C12.0458 17.6935 12.2076 17.7257 12.371 17.7257L25.4667 17.7254L31.3265 28.6084C31.5774 29.074 31.6733 29.6074 31.6005 30.1313C31.5278 30.6551 31.29 31.1422 30.9217 31.5218C30.5534 31.9014 30.0738 32.1538 29.5523 32.2423C29.0309 32.3309 28.4948 32.2511 28.0218 32.0145L1.40718 18.7071C0.993617 18.5005 0.645785 18.1828 0.402688 17.7896C0.159592 17.3964 0.0308434 16.9433 0.0308861 16.481C0.0309286 16.0187 0.159758 15.5656 0.402926 15.1724C0.646097 14.7793 0.994003 14.4616 1.4076 14.2551Z" fill="#FFD400"/>
</svg>
