<svg width="40" height="40" viewBox="0 0 40 40" fill="none" xmlns="http://www.w3.org/2000/svg">
<g filter="url(#filter0_d_266_6050)">
<mask id="path-1-inside-1_266_6050" fill="white">
<path d="M5.24147 19.6314H9.05049C9.22605 20.1606 9.43992 20.6763 9.69041 21.1744L6.9965 23.8683C6.76392 24.1013 6.63329 24.4171 6.63329 24.7463C6.63329 25.0755 6.76392 25.3913 6.9965 25.6243L10.3763 29.0041C10.6093 29.2367 10.9251 29.3673 11.2543 29.3673C11.5835 29.3673 11.8993 29.2367 12.1323 29.0041L14.8264 26.31C15.3244 26.5603 15.84 26.7741 16.3691 26.9496V30.7592C16.3695 31.0883 16.5004 31.4039 16.7331 31.6366C16.9659 31.8694 17.2815 32.0003 17.6106 32.0006H22.39C22.7192 32.0003 23.0347 31.8693 23.2675 31.6366C23.5002 31.4039 23.6311 31.0883 23.6315 30.7592V26.9493C24.1606 26.7738 24.6762 26.56 25.1742 26.3097L27.8684 29.0038C28.1014 29.2362 28.4171 29.3668 28.7462 29.3668C29.0754 29.3668 29.3911 29.2362 29.624 29.0038L33.0039 25.6239C33.2363 25.3909 33.3669 25.0752 33.3669 24.7461C33.3669 24.417 33.2363 24.1013 33.0039 23.8683L30.3097 21.1744C30.5601 20.6763 30.774 20.1606 30.9495 19.6314H34.7585C35.0876 19.6311 35.4032 19.5001 35.6359 19.2674C35.8687 19.0347 35.9996 18.7191 36 18.39V13.6102C35.9996 13.2811 35.8687 12.9656 35.636 12.7328C35.4033 12.5001 35.0878 12.3692 34.7587 12.3687H30.9499C30.7743 11.8395 30.5604 11.3238 30.31 10.8257L33.0034 8.1323C33.2361 7.89931 33.3667 7.58352 33.3667 7.25428C33.3667 6.92504 33.2361 6.60925 33.0034 6.37627L29.6241 2.99644C29.3911 2.76388 29.0753 2.63328 28.7461 2.63328C28.4169 2.63328 28.1011 2.76388 27.8681 2.99644L25.1742 5.69054C24.6762 5.44015 24.1606 5.22637 23.6315 5.05087V1.24147C23.6311 0.912323 23.5002 0.596762 23.2675 0.36402C23.0347 0.131278 22.7192 0.000363899 22.39 0H17.6104C17.2812 0.000363869 16.9656 0.131276 16.7329 0.364016C16.5001 0.596756 16.3692 0.912318 16.3688 1.24147V5.05087C15.8398 5.22641 15.3243 5.4402 14.8263 5.69054L12.132 2.99638C11.899 2.76382 11.5832 2.63321 11.254 2.63321C10.9248 2.63321 10.609 2.76382 10.376 2.99638L6.99644 6.37614C6.76388 6.60917 6.63328 6.92494 6.63328 7.25416C6.63328 7.58337 6.76388 7.89914 6.99644 8.13217L9.69048 10.8262C9.44013 11.3242 9.22632 11.8397 9.05074 12.3687H5.24147C4.91232 12.3691 4.59677 12.5 4.36403 12.7328C4.1313 12.9655 4.00038 13.2811 4 13.6102V18.39C4.00038 18.7191 4.1313 19.0346 4.36404 19.2674C4.59678 19.5001 4.91233 19.631 5.24147 19.6314ZM5.50025 13.8685H10.177L10.3292 13.3186C10.5478 12.5297 10.8626 11.7706 11.2666 11.0586L11.5482 10.562L8.23991 7.25403L11.2542 4.23985L14.5624 7.54818L15.059 7.26653C15.771 6.8627 16.5299 6.548 17.3188 6.32952L17.8687 6.17742V1.5H22.1314V6.17735L22.6813 6.32952C23.4703 6.54786 24.2294 6.8625 24.9416 7.26634L25.4383 7.54799L28.7463 4.23985L31.7605 7.25403L28.4526 10.5619L28.7343 11.0586C29.1383 11.7706 29.4531 12.5297 29.6717 13.3187L29.8238 13.8686H34.5006V18.1313H29.8234L29.6712 18.6812C29.4527 19.4702 29.1378 20.2293 28.7338 20.9413L28.4522 21.4379L31.7602 24.7459L28.7462 27.7605L25.4381 24.4525L24.9415 24.7337C24.2295 25.1376 23.4704 25.4523 22.6815 25.6707L22.1316 25.8229V30.5002H17.8688V25.8229L17.3189 25.6707C16.53 25.4522 15.771 25.1375 15.059 24.7337L14.5624 24.4521L11.2541 27.7605L8.23997 24.7462L11.548 21.4381L11.2662 20.9415C10.8622 20.2295 10.5474 19.4704 10.3288 18.6815L10.1767 18.1315H5.50025V13.8685Z"/>
</mask>
<path d="M5.24147 19.6314H9.05049C9.22605 20.1606 9.43992 20.6763 9.69041 21.1744L6.9965 23.8683C6.76392 24.1013 6.63329 24.4171 6.63329 24.7463C6.63329 25.0755 6.76392 25.3913 6.9965 25.6243L10.3763 29.0041C10.6093 29.2367 10.9251 29.3673 11.2543 29.3673C11.5835 29.3673 11.8993 29.2367 12.1323 29.0041L14.8264 26.31C15.3244 26.5603 15.84 26.7741 16.3691 26.9496V30.7592C16.3695 31.0883 16.5004 31.4039 16.7331 31.6366C16.9659 31.8694 17.2815 32.0003 17.6106 32.0006H22.39C22.7192 32.0003 23.0347 31.8693 23.2675 31.6366C23.5002 31.4039 23.6311 31.0883 23.6315 30.7592V26.9493C24.1606 26.7738 24.6762 26.56 25.1742 26.3097L27.8684 29.0038C28.1014 29.2362 28.4171 29.3668 28.7462 29.3668C29.0754 29.3668 29.3911 29.2362 29.624 29.0038L33.0039 25.6239C33.2363 25.3909 33.3669 25.0752 33.3669 24.7461C33.3669 24.417 33.2363 24.1013 33.0039 23.8683L30.3097 21.1744C30.5601 20.6763 30.774 20.1606 30.9495 19.6314H34.7585C35.0876 19.6311 35.4032 19.5001 35.6359 19.2674C35.8687 19.0347 35.9996 18.7191 36 18.39V13.6102C35.9996 13.2811 35.8687 12.9656 35.636 12.7328C35.4033 12.5001 35.0878 12.3692 34.7587 12.3687H30.9499C30.7743 11.8395 30.5604 11.3238 30.31 10.8257L33.0034 8.1323C33.2361 7.89931 33.3667 7.58352 33.3667 7.25428C33.3667 6.92504 33.2361 6.60925 33.0034 6.37627L29.6241 2.99644C29.3911 2.76388 29.0753 2.63328 28.7461 2.63328C28.4169 2.63328 28.1011 2.76388 27.8681 2.99644L25.1742 5.69054C24.6762 5.44015 24.1606 5.22637 23.6315 5.05087V1.24147C23.6311 0.912323 23.5002 0.596762 23.2675 0.36402C23.0347 0.131278 22.7192 0.000363899 22.39 0H17.6104C17.2812 0.000363869 16.9656 0.131276 16.7329 0.364016C16.5001 0.596756 16.3692 0.912318 16.3688 1.24147V5.05087C15.8398 5.22641 15.3243 5.4402 14.8263 5.69054L12.132 2.99638C11.899 2.76382 11.5832 2.63321 11.254 2.63321C10.9248 2.63321 10.609 2.76382 10.376 2.99638L6.99644 6.37614C6.76388 6.60917 6.63328 6.92494 6.63328 7.25416C6.63328 7.58337 6.76388 7.89914 6.99644 8.13217L9.69048 10.8262C9.44013 11.3242 9.22632 11.8397 9.05074 12.3687H5.24147C4.91232 12.3691 4.59677 12.5 4.36403 12.7328C4.1313 12.9655 4.00038 13.2811 4 13.6102V18.39C4.00038 18.7191 4.1313 19.0346 4.36404 19.2674C4.59678 19.5001 4.91233 19.631 5.24147 19.6314ZM5.50025 13.8685H10.177L10.3292 13.3186C10.5478 12.5297 10.8626 11.7706 11.2666 11.0586L11.5482 10.562L8.23991 7.25403L11.2542 4.23985L14.5624 7.54818L15.059 7.26653C15.771 6.8627 16.5299 6.548 17.3188 6.32952L17.8687 6.17742V1.5H22.1314V6.17735L22.6813 6.32952C23.4703 6.54786 24.2294 6.8625 24.9416 7.26634L25.4383 7.54799L28.7463 4.23985L31.7605 7.25403L28.4526 10.5619L28.7343 11.0586C29.1383 11.7706 29.4531 12.5297 29.6717 13.3187L29.8238 13.8686H34.5006V18.1313H29.8234L29.6712 18.6812C29.4527 19.4702 29.1378 20.2293 28.7338 20.9413L28.4522 21.4379L31.7602 24.7459L28.7462 27.7605L25.4381 24.4525L24.9415 24.7337C24.2295 25.1376 23.4704 25.4523 22.6815 25.6707L22.1316 25.8229V30.5002H17.8688V25.8229L17.3189 25.6707C16.53 25.4522 15.771 25.1375 15.059 24.7337L14.5624 24.4521L11.2541 27.7605L8.23997 24.7462L11.548 21.4381L11.2662 20.9415C10.8622 20.2295 10.5474 19.4704 10.3288 18.6815L10.1767 18.1315H5.50025V13.8685Z" fill="white" stroke="white" stroke-width="4" mask="url(#path-1-inside-1_266_6050)"/>
<mask id="path-2-inside-2_266_6050" fill="white">
<path d="M20.0002 22.6175C21.3091 22.6176 22.5885 22.2295 23.6767 21.5023C24.765 20.7752 25.6132 19.7417 26.1141 18.5325C26.6149 17.3233 26.746 15.9927 26.4906 14.709C26.2353 13.4253 25.605 12.2462 24.6795 11.3207C23.754 10.3953 22.5749 9.76503 21.2912 9.50971C20.0075 9.25439 18.677 9.38546 17.4678 9.88635C16.2586 10.3872 15.2251 11.2354 14.498 12.3237C13.7709 13.412 13.3828 14.6914 13.3828 16.0002C13.3848 17.7547 14.0827 19.4366 15.3233 20.6772C16.5638 21.9177 18.2458 22.6155 20.0002 22.6175ZM20.0002 10.8826C21.0124 10.8826 22.0018 11.1827 22.8434 11.7451C23.685 12.3074 24.3409 13.1066 24.7282 14.0417C25.1156 14.9768 25.2169 16.0058 25.0195 16.9985C24.822 17.9912 24.3346 18.903 23.6189 19.6187C22.9032 20.3344 21.9914 20.8218 20.9987 21.0193C20.006 21.2167 18.977 21.1154 18.0419 20.728C17.1068 20.3407 16.3075 19.6848 15.7452 18.8432C15.1829 18.0016 14.8828 17.0122 14.8828 16.0001C14.8844 14.6433 15.424 13.3426 16.3834 12.3833C17.3428 11.424 18.6435 10.8843 20.0002 10.8828V10.8826Z"/>
</mask>
<path d="M20.0002 22.6175C21.3091 22.6176 22.5885 22.2295 23.6767 21.5023C24.765 20.7752 25.6132 19.7417 26.1141 18.5325C26.6149 17.3233 26.746 15.9927 26.4906 14.709C26.2353 13.4253 25.605 12.2462 24.6795 11.3207C23.754 10.3953 22.5749 9.76503 21.2912 9.50971C20.0075 9.25439 18.677 9.38546 17.4678 9.88635C16.2586 10.3872 15.2251 11.2354 14.498 12.3237C13.7709 13.412 13.3828 14.6914 13.3828 16.0002C13.3848 17.7547 14.0827 19.4366 15.3233 20.6772C16.5638 21.9177 18.2458 22.6155 20.0002 22.6175ZM20.0002 10.8826C21.0124 10.8826 22.0018 11.1827 22.8434 11.7451C23.685 12.3074 24.3409 13.1066 24.7282 14.0417C25.1156 14.9768 25.2169 16.0058 25.0195 16.9985C24.822 17.9912 24.3346 18.903 23.6189 19.6187C22.9032 20.3344 21.9914 20.8218 20.9987 21.0193C20.006 21.2167 18.977 21.1154 18.0419 20.728C17.1068 20.3407 16.3075 19.6848 15.7452 18.8432C15.1829 18.0016 14.8828 17.0122 14.8828 16.0001C14.8844 14.6433 15.424 13.3426 16.3834 12.3833C17.3428 11.424 18.6435 10.8843 20.0002 10.8828V10.8826Z" fill="white"/>
<path d="M20.0002 22.6175L19.998 24.6175H20.0002L20.0002 22.6175ZM13.3828 16.0002L11.3828 16.0003L11.3828 16.0026L13.3828 16.0002ZM20.0002 10.8826L20.0002 8.88263L18.0002 8.88266V10.8826H20.0002ZM14.8828 16.0001L12.8828 15.9977L12.8828 16L14.8828 16.0001ZM20.0002 10.8828L20.0025 12.8828L22.0002 12.8806V10.8828H20.0002ZM20.0002 24.6175C21.7046 24.6176 23.3707 24.1122 24.7879 23.1653L22.5656 19.8394C21.8063 20.3467 20.9135 20.6176 20.0003 20.6175L20.0002 24.6175ZM24.7879 23.1653C26.205 22.2184 27.3096 20.8725 27.9618 19.2978L24.2663 17.7671C23.9168 18.6108 23.325 19.332 22.5656 19.8394L24.7879 23.1653ZM27.9618 19.2978C28.6141 17.7232 28.7847 15.9905 28.4522 14.3188L24.5291 15.0992C24.7072 15.9949 24.6158 16.9234 24.2663 17.7671L27.9618 19.2978ZM28.4522 14.3188C28.1197 12.6472 27.2989 11.1117 26.0937 9.90652L23.2653 12.735C23.9111 13.3807 24.3509 14.2035 24.5291 15.0992L28.4522 14.3188ZM26.0937 9.90652C24.8885 8.70134 23.353 7.88062 21.6814 7.54813L20.9011 11.4713C21.7968 11.6494 22.6195 12.0892 23.2653 12.735L26.0937 9.90652ZM21.6814 7.54813C20.0097 7.21564 18.277 7.38633 16.7024 8.0386L18.2332 11.7341C19.0769 11.3846 20.0053 11.2931 20.9011 11.4713L21.6814 7.54813ZM16.7024 8.0386C15.1277 8.69087 13.7819 9.79544 12.835 11.2126L16.1609 13.4348C16.6683 12.6754 17.3894 12.0836 18.2332 11.7341L16.7024 8.0386ZM12.835 11.2126C11.8881 12.6298 11.3828 14.2959 11.3828 16.0003L15.3828 16.0002C15.3828 15.0869 15.6536 14.1942 16.1609 13.4348L12.835 11.2126ZM11.3828 16.0026C11.3855 18.2866 12.294 20.4764 13.9091 22.0914L16.7375 19.263C15.8714 18.3969 15.3842 17.2227 15.3828 15.9979L11.3828 16.0026ZM13.9091 22.0914C15.5241 23.7065 17.7139 24.6149 19.998 24.6175L20.0025 20.6175C18.7777 20.6161 17.6035 20.129 16.7375 19.263L13.9091 22.0914ZM20.0003 12.8826C20.6168 12.8826 21.2196 13.0655 21.7323 13.408L23.9545 10.0821C22.784 9.30004 21.4079 8.88262 20.0002 8.88263L20.0003 12.8826ZM21.7323 13.408C22.2449 13.7506 22.6445 14.2374 22.8805 14.8071L26.576 13.2763C26.0373 11.9758 25.125 10.8642 23.9545 10.0821L21.7323 13.408ZM22.8805 14.8071C23.1164 15.3767 23.1782 16.0036 23.0579 16.6083L26.981 17.3886C27.2557 16.008 27.1147 14.5769 26.576 13.2763L22.8805 14.8071ZM23.0579 16.6083C22.9376 17.213 22.6407 17.7685 22.2047 18.2045L25.0331 21.0329C26.0285 20.0375 26.7064 18.7693 26.981 17.3886L23.0579 16.6083ZM22.2047 18.2045C21.7687 18.6405 21.2132 18.9374 20.6085 19.0577L21.3888 22.9808C22.7695 22.7062 24.0377 22.0283 25.0331 21.0329L22.2047 18.2045ZM20.6085 19.0577C20.0037 19.178 19.3769 19.1163 18.8073 18.8803L17.2765 22.5758C18.5771 23.1145 20.0082 23.2555 21.3888 22.9808L20.6085 19.0577ZM18.8073 18.8803C18.2376 18.6443 17.7507 18.2448 17.4082 17.7321L14.0823 19.9543C14.8644 21.1248 15.976 22.0371 17.2765 22.5758L18.8073 18.8803ZM17.4082 17.7321C17.0656 17.2194 16.8828 16.6167 16.8828 16.0001L12.8828 16C12.8828 17.4077 13.3002 18.7838 14.0823 19.9543L17.4082 17.7321ZM16.8828 16.0024C16.8838 15.1753 17.2128 14.3824 17.7976 13.7975L14.9692 10.9691C13.6353 12.3029 12.885 14.1114 12.8828 15.9977L16.8828 16.0024ZM17.7976 13.7975C18.3825 13.2127 19.1754 12.8837 20.0025 12.8828L19.998 8.88282C18.1116 8.88494 16.3031 9.63521 14.9692 10.9691L17.7976 13.7975ZM22.0002 10.8828V10.8826H18.0002V10.8828H22.0002Z" fill="white" mask="url(#path-2-inside-2_266_6050)"/>
</g>
<defs>
<filter id="filter0_d_266_6050" x="0" y="0" width="40" height="40.0007" filterUnits="userSpaceOnUse" color-interpolation-filters="sRGB">
<feFlood flood-opacity="0" result="BackgroundImageFix"/>
<feColorMatrix in="SourceAlpha" type="matrix" values="0 0 0 0 0 0 0 0 0 0 0 0 0 0 0 0 0 0 127 0" result="hardAlpha"/>
<feOffset dy="4"/>
<feGaussianBlur stdDeviation="2"/>
<feComposite in2="hardAlpha" operator="out"/>
<feColorMatrix type="matrix" values="0 0 0 0 0 0 0 0 0 0 0 0 0 0 0 0 0 0 0.25 0"/>
<feBlend mode="normal" in2="BackgroundImageFix" result="effect1_dropShadow_266_6050"/>
<feBlend mode="normal" in="SourceGraphic" in2="effect1_dropShadow_266_6050" result="shape"/>
</filter>
</defs>
</svg>
