<svg width="22" height="24" viewBox="0 0 22 24" fill="none" xmlns="http://www.w3.org/2000/svg">
<path fill-rule="evenodd" clip-rule="evenodd" d="M22 3.77456C22 5.85914 20.2942 7.54908 18.1901 7.54908C17.0712 7.54908 16.065 7.07123 15.368 6.31031L7.43809 10.8462C7.55585 11.2099 7.61963 11.5976 7.61963 12C7.61963 12.4031 7.55561 12.7912 7.43756 13.1553L15.3671 17.6909C16.0641 16.9293 17.0707 16.451 18.1902 16.451C20.2943 16.451 22 18.1409 22 20.2255C22 22.3101 20.2943 24 18.1902 24C16.086 24 14.3803 22.3101 14.3803 20.2255C14.3803 19.8225 14.4443 19.4343 14.5624 19.0702L6.63295 14.5346C5.93597 15.2962 4.92928 15.7745 3.80984 15.7745C1.70575 15.7745 0 14.0846 0 12C0 9.91537 1.7057 8.22548 3.80984 8.22548C4.92866 8.22548 5.93484 8.70333 6.63186 9.46425L14.5618 4.92834C14.4441 4.56464 14.3803 4.17698 14.3803 3.77456C14.3803 1.68994 16.086 0 18.1901 0C20.2942 0 22 1.68994 22 3.77456Z" fill="#FFD400"/>
</svg>
