<svg width="19" height="21" viewBox="0 0 19 21" fill="none" xmlns="http://www.w3.org/2000/svg">
<path d="M18.8977 4.53018C18.8027 3.55381 18.054 2.7769 17.0732 2.64042C13.7408 2.16798 11.6316 1.01312 10.672 0.362205C9.95484 -0.120735 9.03736 -0.120735 8.33079 0.362205C7.36058 1.01312 5.25143 2.16798 1.92951 2.64042C0.948755 2.7769 0.200006 3.55381 0.105094 4.53018C-0.527652 11.1864 1.65532 17.7585 7.78241 20.6142C8.87917 21.1286 10.1236 21.1286 11.2203 20.6142C17.3474 17.7375 19.5199 11.1654 18.8977 4.53018ZM13.4139 9.13911L9.19554 13.3386C8.78426 13.748 8.11988 13.748 7.70859 13.3386L5.59944 11.2388C4.60814 10.252 6.10563 8.77165 7.08639 9.75853L8.4468 11.1129L11.9164 7.65879C12.9077 6.67192 14.3946 8.16273 13.4033 9.13911H13.4139Z" fill="#FFD400"/>
</svg>
