<svg width="29" height="29" viewBox="0 0 29 29" fill="none" xmlns="http://www.w3.org/2000/svg">
<path d="M11.6836 11.2524H13.9279L16.286 8.89429H14.0417L11.6836 11.2524Z" fill="#FFD400"/>
<path d="M19.306 9.41063C19.0953 9.36255 18.902 9.30727 18.7331 9.24519C18.7307 9.24428 18.7284 9.24337 18.726 9.24247L18.7059 9.23443C18.283 9.07951 17.5994 8.94533 17.0747 8.90625L14.7285 11.2525H17.4647L19.306 9.41063Z" fill="#FFD400"/>
<path d="M11.2833 15.3556L12.3627 14.6141C12.3638 14.6133 12.3651 14.6129 12.3662 14.6122C12.3757 14.6058 12.3859 14.6009 12.3961 14.5958C12.4029 14.5924 12.4094 14.5883 12.4163 14.5855C12.4249 14.5819 12.4338 14.5799 12.4426 14.5772C12.4515 14.5746 12.4603 14.5714 12.4693 14.5696C12.4774 14.5681 12.4856 14.5679 12.4938 14.5671C12.5036 14.566 12.5134 14.5644 12.5232 14.5644C12.5322 14.5644 12.5411 14.5659 12.5501 14.5668C12.5591 14.5677 12.5682 14.568 12.577 14.5697C12.5857 14.5713 12.594 14.5745 12.6025 14.577C12.6117 14.5797 12.621 14.5818 12.6299 14.5855C12.6368 14.5883 12.6433 14.5923 12.6501 14.5958C12.6602 14.6009 12.6703 14.6058 12.6798 14.6121C12.681 14.6129 12.6822 14.6133 12.6834 14.6141L13.7623 15.3554V11.8188H11.2832V15.3556H11.2833Z" fill="#FFD400"/>
<path d="M13.2408 8.89421H13.2127C12.6413 8.89421 12.1533 8.53964 11.9697 8.03809L10.934 8.46538L8.14746 11.2523H10.8827L13.2408 8.89421Z" fill="#FFD400"/>
<path d="M10.717 17.2961C10.717 17.2957 10.7171 17.2954 10.7171 17.295C10.7171 17.2763 10.7189 17.2576 10.7227 17.2391C10.7304 17.2017 10.7455 17.1671 10.7663 17.1366C10.7665 17.1363 10.7666 17.136 10.7668 17.1357C10.7697 17.1315 10.7734 17.1282 10.7765 17.1241C10.7845 17.1137 10.7925 17.1034 10.8019 17.0942C10.8085 17.0877 10.8159 17.0825 10.8231 17.0767C10.8302 17.0709 10.8369 17.0648 10.8446 17.0597C10.8526 17.0544 10.8613 17.0505 10.8697 17.046C10.8775 17.042 10.885 17.0374 10.8932 17.0341C10.9025 17.0304 10.9121 17.028 10.9216 17.0253C10.9297 17.0229 10.9375 17.0199 10.9458 17.0183C10.9594 17.0157 10.9733 17.0148 10.9871 17.0142C10.9916 17.014 10.9957 17.0129 11.0001 17.0129C11.0004 17.0129 11.0007 17.013 11.001 17.013C11.0379 17.0131 11.0751 17.0202 11.1103 17.0352C11.1277 17.0425 11.1441 17.0516 11.1596 17.0622C11.1599 17.0624 11.1602 17.0625 11.1605 17.0627L12.5226 17.9985L13.8853 17.0627C13.8856 17.0625 13.886 17.0624 13.8863 17.0621C13.9016 17.0516 13.9181 17.0425 13.9354 17.0352C13.9706 17.0203 14.0077 17.0131 14.0447 17.013C14.045 17.013 14.0453 17.0129 14.0456 17.0129C14.0507 17.0129 14.0554 17.0141 14.0604 17.0144C14.0736 17.0151 14.0868 17.0158 14.0997 17.0183C14.1087 17.02 14.1171 17.0232 14.1258 17.0258C14.1347 17.0284 14.1437 17.0305 14.1523 17.0341C14.161 17.0377 14.1689 17.0424 14.1772 17.0468C14.1852 17.051 14.1934 17.0548 14.201 17.0597C14.209 17.065 14.2159 17.0714 14.2233 17.0774C14.2302 17.083 14.2374 17.088 14.2438 17.0943C14.2529 17.1032 14.2606 17.1133 14.2684 17.1234C14.2718 17.1278 14.2758 17.1313 14.279 17.1359C14.2792 17.1362 14.2793 17.1366 14.2795 17.1369C14.29 17.1522 14.2991 17.1688 14.3065 17.1862C14.3213 17.2213 14.3285 17.2583 14.3286 17.2952C14.3286 17.2956 14.3287 17.2959 14.3287 17.2963V21.371H17.2991V11.8188H14.3287V15.8936C14.3287 15.894 14.3286 15.8944 14.3286 15.8948C14.3285 15.9316 14.3213 15.9687 14.3065 16.0038C14.2991 16.0212 14.29 16.0377 14.2795 16.053C14.2793 16.0534 14.2792 16.0538 14.2789 16.0541C14.2699 16.0672 14.2596 16.079 14.2488 16.0902C14.2465 16.0927 14.2441 16.095 14.2416 16.0974C14.2298 16.1088 14.2173 16.1195 14.2039 16.1285C14.2038 16.1286 14.2036 16.1287 14.2034 16.1287C14.1901 16.1378 14.1758 16.1451 14.1613 16.1516C14.158 16.1531 14.1547 16.1547 14.1513 16.156C14.1367 16.1619 14.1217 16.1666 14.1063 16.17C14.103 16.1707 14.0996 16.1712 14.0962 16.1718C14.0796 16.1748 14.0628 16.1768 14.0458 16.1768C14.0457 16.1768 14.0456 16.1769 14.0455 16.1769C14.0454 16.1769 14.0453 16.1769 14.0452 16.1769C14.0282 16.1769 14.0113 16.1749 13.9944 16.1717C13.9894 16.1708 13.9846 16.1696 13.9796 16.1684C13.9679 16.1656 13.9562 16.162 13.9448 16.1576C13.9399 16.1558 13.935 16.154 13.9302 16.1519C13.9177 16.1462 13.9054 16.1396 13.8935 16.1319C13.8911 16.1304 13.8885 16.1293 13.8862 16.1277C13.8858 16.1274 13.8854 16.1273 13.8851 16.127L12.5231 15.1911L11.1605 16.127C11.1602 16.1273 11.1598 16.1274 11.1595 16.1276C11.157 16.1293 11.1542 16.1306 11.1517 16.1321C11.1399 16.1397 11.1278 16.1462 11.1154 16.1519C11.1106 16.154 11.1056 16.1557 11.1006 16.1576C11.0892 16.162 11.0777 16.1656 11.066 16.1684C11.0611 16.1696 11.0562 16.1708 11.0511 16.1717C11.0343 16.1749 11.0173 16.1769 11.0004 16.1769C11.0003 16.1769 11.0003 16.1769 11.0002 16.1769H11.0002C11.0001 16.1769 10.9999 16.1768 10.9998 16.1768C10.9829 16.1768 10.966 16.1748 10.9494 16.1717C10.946 16.1711 10.9427 16.1707 10.9393 16.17C10.924 16.1666 10.9089 16.1619 10.8943 16.156C10.8909 16.1546 10.8877 16.1531 10.8844 16.1516C10.8698 16.1451 10.8556 16.1378 10.8422 16.1287C10.8421 16.1287 10.8419 16.1286 10.8417 16.1285C10.8284 16.1195 10.8159 16.1088 10.804 16.0974C10.8016 16.095 10.7992 16.0926 10.7968 16.0902C10.7861 16.079 10.7758 16.0672 10.7667 16.054C10.7665 16.0537 10.7664 16.0534 10.7662 16.0531C10.7557 16.0377 10.7465 16.0212 10.7392 16.0037C10.7243 15.9686 10.7171 15.9316 10.7171 15.8947C10.7171 15.8943 10.717 15.894 10.717 15.8936V11.8188H7.74707V19.6617C7.74707 19.6619 7.74713 19.6621 7.74713 19.6623C7.74713 19.6624 7.74707 19.6627 7.74707 19.6628V21.3709H10.717V17.2961Z" fill="#FFD400"/>
<path d="M1.92676 18.0886H3.87735V26.783H1.92676V18.0886Z" fill="#FFD400"/>
<path d="M5.25253 18.7061H4.44336V26.0489H5.25253C5.41061 26.0489 5.53919 25.9203 5.53919 25.7622V24.9152C5.53919 24.9143 5.53896 24.9136 5.53896 24.9127C5.53896 24.9119 5.53919 24.9113 5.53919 24.9105V18.9927C5.53919 18.8346 5.41061 18.7061 5.25253 18.7061Z" fill="#FFD400"/>
<path d="M25.1221 2.21729H27.0727V10.9115H25.1221V2.21729Z" fill="#FFD400"/>
<path d="M12.6478 18.5957C12.6441 18.5976 12.6401 18.5992 12.6362 18.6009C12.6283 18.6044 12.6203 18.6075 12.6121 18.6103C12.6072 18.6119 12.6023 18.6134 12.5974 18.6147C12.5896 18.6169 12.5817 18.6186 12.5738 18.6201C12.5691 18.621 12.5645 18.6219 12.5598 18.6226C12.5482 18.6241 12.5364 18.625 12.5247 18.6252C12.524 18.6252 12.5233 18.6253 12.5226 18.6253C12.5225 18.6253 12.5224 18.6253 12.5223 18.6253C12.5223 18.6253 12.5222 18.6253 12.5221 18.6253C12.5214 18.6253 12.5207 18.6252 12.52 18.6252C12.5082 18.625 12.4964 18.6241 12.4848 18.6226C12.4801 18.6219 12.4755 18.621 12.4708 18.6201C12.4629 18.6186 12.455 18.6169 12.4472 18.6147C12.4424 18.6134 12.4375 18.6119 12.4326 18.6103C12.4243 18.6075 12.4162 18.6043 12.4081 18.6007C12.4044 18.5991 12.4006 18.5976 12.3969 18.5958C12.3849 18.5899 12.3733 18.5832 12.3621 18.5756C12.3621 18.5756 12.362 18.5755 12.362 18.5755L11.2832 17.8343V21.3709H13.7622V17.8342L12.6827 18.5756C12.6827 18.5757 12.6826 18.5757 12.6825 18.5758C12.6714 18.5834 12.6597 18.5899 12.6478 18.5957Z" fill="#FFD400"/>
<path d="M23.46 3.23789V4.09248C23.46 4.09373 23.46 4.09497 23.46 4.09628V9.33667C23.46 9.33706 23.4601 9.3374 23.4601 9.3378C23.4601 9.33819 23.46 9.33853 23.46 9.33893V10.0073C23.46 10.1654 23.5886 10.294 23.7467 10.294H24.5557V2.95117H23.7467C23.5885 2.95117 23.46 3.0798 23.46 3.23789Z" fill="#FFD400"/>
<path d="M14.5832 3.0282L6.90363 8.06916C6.73716 8.17638 6.62286 8.3386 6.58814 8.51549C6.55886 8.66439 6.58854 8.81194 6.67174 8.93089C6.87718 9.22451 7.3631 9.33553 7.73262 9.17337C7.73455 9.17252 7.73647 9.17172 7.73845 9.17093L10.6641 7.96386C10.666 7.96301 10.668 7.96222 10.67 7.96143L11.9001 7.45393C11.9042 7.41858 11.909 7.38324 11.9159 7.34818C12.038 6.74241 12.5831 6.30305 13.2121 6.30305H16.7943C16.7995 6.30305 16.8048 6.30316 16.81 6.3035C16.8171 6.30367 17.6446 6.33669 18.3051 5.76592C18.4235 5.66357 18.6022 5.67666 18.7046 5.79504C18.8069 5.91336 18.7938 6.09223 18.6755 6.19447C17.8698 6.89064 16.9002 6.87404 16.788 6.86945H13.2121C12.8517 6.86945 12.5401 7.11765 12.4712 7.45965C12.4618 7.50626 12.4573 7.5518 12.4573 7.59853C12.4573 7.60867 12.4574 7.61869 12.458 7.62844C12.4767 8.01609 12.8148 8.32789 13.2121 8.32789H16.7943C16.848 8.32789 16.9053 8.3297 16.964 8.33231C16.9652 8.33231 16.9663 8.33242 16.9675 8.33242C17.5648 8.35944 18.3926 8.51549 18.9049 8.70399C18.9073 8.70483 18.9096 8.70574 18.912 8.7067L18.9321 8.71469C19.5131 8.92755 20.4214 9.05459 21.363 9.05459H22.8929V4.31275L16.1405 2.74601C15.689 2.64757 14.9744 2.77643 14.5832 3.0282Z" fill="#FFD400"/>
<path d="M17.7832 21.8527C17.7694 21.8666 17.7542 21.8791 17.7378 21.89C17.7357 21.8914 17.7334 21.8922 17.7314 21.8935C17.7178 21.902 17.7038 21.9098 17.6889 21.9159C17.6852 21.9174 17.6813 21.9181 17.6775 21.9195C17.664 21.9244 17.6504 21.929 17.636 21.9318C17.6329 21.9324 17.6299 21.9323 17.6268 21.9328C17.612 21.9352 17.5971 21.9373 17.5817 21.9373H16.9888C16.7774 22.3937 16.3109 22.697 15.7865 22.697H12.2042C12.199 22.697 12.1938 22.6969 12.1886 22.6966C12.1815 22.6966 11.3538 22.6637 10.6932 23.2342C10.6397 23.2804 10.5738 23.3031 10.5082 23.3031C10.4287 23.3031 10.3497 23.2698 10.2937 23.205C10.1915 23.0867 10.2046 22.9078 10.3229 22.8056C11.1287 22.1096 12.0983 22.1259 12.2105 22.1306H15.7865C15.9813 22.1306 16.162 22.0585 16.2978 21.9373H14.0447H10.9993H7.46297C7.30659 21.9373 7.17977 21.8106 7.17977 21.6541V19.9455H6.10547V24.6876L12.8579 26.254C13.3012 26.3513 14.0306 26.2197 14.4151 25.972L22.0946 20.9314C22.2611 20.824 22.3754 20.6617 22.4103 20.4847C22.4395 20.3357 22.4099 20.1882 22.3268 20.0692C22.1211 19.7755 21.6353 19.6644 21.2661 19.8269C21.2641 19.8278 21.2622 19.8286 21.2602 19.8294L18.7855 20.8503L17.7832 21.8527Z" fill="#FFD400"/>
<path d="M19.9865 9.53149L17.8652 11.6533V20.9702L21.488 17.3473V9.62116H21.3634C20.8878 9.62116 20.418 9.58944 19.9865 9.53149Z" fill="#FFD400"/>
</svg>
