<svg width="23" height="23" viewBox="0 0 23 23" fill="none" xmlns="http://www.w3.org/2000/svg">
<path fill-rule="evenodd" clip-rule="evenodd" d="M5.61523 0H17.3848C20.4775 0 23 2.52245 23 5.61523V17.3848C23 20.4775 20.4775 23 17.3848 23H5.61523C2.52263 23 0 20.4775 0 17.3848V5.61523C0 2.52245 2.52263 0 5.61523 0ZM17.9463 11.2865L15.1542 9.67464L12.4838 8.13239C12.4422 8.10833 12.3946 8.09696 12.3466 8.09967C12.2987 8.10238 12.2526 8.11905 12.214 8.14764C12.1754 8.17622 12.1461 8.21547 12.1295 8.26054C12.113 8.30561 12.11 8.35453 12.1209 8.40129L12.631 10.624H8.54356C8.31123 10.624 8.08843 10.7163 7.92415 10.8806C7.75987 11.0449 7.66758 11.2677 7.66758 11.5C7.66758 11.7323 7.75987 11.9551 7.92415 12.1194C8.08843 12.2837 8.31123 12.376 8.54356 12.376H12.631L12.1209 14.5991C12.1099 14.6458 12.1129 14.6948 12.1295 14.7398C12.146 14.7849 12.1754 14.8241 12.214 14.8527C12.2526 14.8813 12.2987 14.8979 12.3466 14.9006C12.3946 14.9033 12.4423 14.8919 12.4838 14.8678L15.1545 13.3256L17.9463 11.7139C17.9839 11.6923 18.0152 11.6612 18.037 11.6237C18.0588 11.5862 18.0703 11.5436 18.0703 11.5002C18.0703 11.4568 18.0588 11.4142 18.037 11.3767C18.0152 11.3392 17.9839 11.3081 17.9463 11.2865ZM5.80674 18.5078H11.9655C12.1978 18.5078 12.4207 18.4155 12.5849 18.2512C12.7492 18.087 12.8415 17.8642 12.8415 17.6318C12.8415 17.3995 12.7492 17.1767 12.5849 17.0124C12.4207 16.8482 12.1978 16.7559 11.9655 16.7559H6.68235V6.24414H11.9657C12.198 6.24414 12.4208 6.15185 12.5851 5.98757C12.7494 5.8233 12.8417 5.60049 12.8417 5.36816C12.8417 5.13584 12.7494 4.91303 12.5851 4.74875C12.4208 4.58448 12.198 4.49219 11.9657 4.49219H5.80692C5.57448 4.49209 5.35152 4.58432 5.18708 4.7486C5.02264 4.91287 4.93018 5.13573 4.93004 5.36816V17.6318C4.93008 17.7469 4.95278 17.8609 4.99686 17.9672C5.04094 18.0735 5.10553 18.1701 5.18694 18.2514C5.26835 18.3328 5.36499 18.3973 5.47134 18.4413C5.57768 18.4853 5.69165 18.5079 5.80674 18.5078Z" fill="#FFD400"/>
</svg>
