<svg width="29" height="29" viewBox="0 0 29 29" fill="none" xmlns="http://www.w3.org/2000/svg">
<path d="M11.7812 2.71875H13.5938V3.625H11.7812V2.71875Z" fill="#FFD400"/>
<path d="M5.4375 2.71875H7.25V3.625H5.4375V2.71875Z" fill="#FFD400"/>
<path d="M9.51562 5.89062C9.61367 5.89062 9.70907 5.92242 9.7875 5.98125L10.875 6.79688V2.71875H9.96875V4.53125C9.96875 4.65143 9.92101 4.76668 9.83603 4.85166C9.75106 4.93664 9.6358 4.98438 9.51562 4.98438C9.39545 4.98438 9.28019 4.93664 9.19522 4.85166C9.11024 4.76668 9.0625 4.65143 9.0625 4.53125V2.71875H8.15625V6.79688L9.24375 5.98125C9.32218 5.92242 9.41758 5.89062 9.51562 5.89062Z" fill="#FFD400"/>
<path d="M16.7656 9.96875H23.1094V10.875H16.7656V9.96875Z" fill="#FFD400"/>
<path d="M23.1094 4.53125H22.2031V7.70312C22.2031 7.78728 22.1797 7.86976 22.1355 7.94135C22.0912 8.01293 22.0279 8.07078 21.9526 8.10841C21.8774 8.14605 21.7931 8.16198 21.7093 8.15442C21.6255 8.14686 21.5454 8.11612 21.4781 8.06562L19.9375 6.91016L18.3969 8.06562C18.3296 8.11612 18.2495 8.14686 18.1657 8.15442C18.0819 8.16198 17.9976 8.14605 17.9224 8.10841C17.8471 8.07078 17.7838 8.01293 17.7395 7.94135C17.6953 7.86976 17.6719 7.78728 17.6719 7.70312V4.53125H16.7656V9.0625H23.1094V4.53125Z" fill="#FFD400"/>
<path d="M27.1875 2.26562C27.1875 2.14545 27.1398 2.03019 27.0548 1.94522C26.9698 1.86024 26.8546 1.8125 26.7344 1.8125C26.6142 1.8125 26.4989 1.86024 26.414 1.94522C26.329 2.03019 26.2812 2.14545 26.2812 2.26562V10.875H27.1875V2.26562Z" fill="#FFD400"/>
<path d="M19.9375 5.89062C20.0355 5.89062 20.1309 5.92242 20.2094 5.98125L21.2969 6.79688V4.53125H18.5781V6.79688L19.6656 5.98125C19.7441 5.92242 19.8395 5.89062 19.9375 5.89062Z" fill="#FFD400"/>
<path d="M2.71875 2.26562C2.71875 2.14545 2.67101 2.03019 2.58603 1.94522C2.50106 1.86024 2.3858 1.8125 2.26562 1.8125C2.14545 1.8125 2.03019 1.86024 1.94522 1.94522C1.86024 2.03019 1.8125 2.14545 1.8125 2.26562V10.875H2.71875V2.26562Z" fill="#FFD400"/>
<path d="M1.8125 27.1875H3.79809L4.25122 26.2812H1.8125V27.1875Z" fill="#FFD400"/>
<path d="M5.4375 9.96875H13.5938V10.875H5.4375V9.96875Z" fill="#FFD400"/>
<path d="M25.2021 27.1875H27.1877V26.2812H24.749L25.2021 27.1875Z" fill="#FFD400"/>
<path d="M13.5938 4.53125H11.7812V7.70312C11.7812 7.78728 11.7578 7.86976 11.7136 7.94135C11.6693 8.01293 11.606 8.07078 11.5308 8.10841C11.4555 8.14605 11.3712 8.16198 11.2874 8.15442C11.2036 8.14686 11.1236 8.11612 11.0562 8.06562L9.51562 6.91016L7.975 8.06562C7.90768 8.11612 7.82763 8.14686 7.74382 8.15442C7.66001 8.16198 7.57575 8.14605 7.50048 8.10841C7.42521 8.07078 7.36191 8.01293 7.31767 7.94135C7.27343 7.86976 7.25 7.78728 7.25 7.70312V4.53125H5.4375V9.0625H13.5938V4.53125Z" fill="#FFD400"/>
<path d="M27.6406 24.4688H25.8281H23.5625H15.4062H12.2344H5.89062H3.17188H1.35938H0.90625V25.375H1.35938H4.98438H24.0156H27.6406H28.0942L28.0938 24.4688H27.6406Z" fill="#FFD400"/>
<path d="M15.4062 22.6562H23.563V23.5625H15.4062V22.6562Z" fill="#FFD400"/>
<path d="M18.125 15.4062V19.4844L19.2125 18.6688C19.2909 18.6099 19.3863 18.5781 19.4844 18.5781C19.5824 18.5781 19.6778 18.6099 19.7562 18.6688L20.8438 19.4844V15.4062H19.9375V17.2188C19.9375 17.3389 19.8898 17.4542 19.8048 17.5392C19.7198 17.6241 19.6046 17.6719 19.4844 17.6719C19.3642 17.6719 19.2489 17.6241 19.164 17.5392C19.079 17.4542 19.0312 17.3389 19.0312 17.2188V15.4062H18.125Z" fill="#FFD400"/>
<path d="M1.8125 13.5938H2.71875V23.5625H1.8125V13.5938Z" fill="#FFD400"/>
<path d="M25.375 23.5625V13.5938H3.625V23.5625H4.98438V17.2188C4.98438 16.9784 5.07985 16.7479 5.24981 16.5779C5.41976 16.408 5.65027 16.3125 5.89062 16.3125H12.2344C12.4747 16.3125 12.7052 16.408 12.8752 16.5779C13.0451 16.7479 13.1406 16.9784 13.1406 17.2188V23.5625H14.5V15.4062C14.5 15.1659 14.5955 14.9354 14.7654 14.7654C14.9354 14.5955 15.1659 14.5 15.4062 14.5H23.5625C23.8029 14.5 24.0334 14.5955 24.2033 14.7654C24.3733 14.9354 24.4688 15.1659 24.4688 15.4062V23.5625H25.375Z" fill="#FFD400"/>
<path d="M26.2812 13.5938H27.1875V23.5625H26.2812V13.5938Z" fill="#FFD400"/>
<path d="M27.6406 11.7812H25.8281H23.1094H16.7656H13.5938H5.4375H3.17188H1.35938H0.90625V12.6875H1.35938H3.17188H25.8281H27.6406H28.0942L28.0938 11.7812H27.6406Z" fill="#FFD400"/>
<path d="M5.89062 22.6562H12.2348V23.5625H5.89062V22.6562Z" fill="#FFD400"/>
<path d="M5.89062 17.2188V21.75H12.2344V17.2188H11.3281V20.3906C11.3281 20.4748 11.3047 20.5573 11.2605 20.6288C11.2162 20.7004 11.1529 20.7583 11.0776 20.7959C11.0024 20.8335 10.9181 20.8495 10.8343 20.8419C10.7505 20.8344 10.6704 20.8036 10.6031 20.7531L9.0625 19.5977L7.52188 20.7531C7.45455 20.8036 7.3745 20.8344 7.29069 20.8419C7.20688 20.8495 7.12262 20.8335 7.04736 20.7959C6.97209 20.7583 6.90879 20.7004 6.86455 20.6288C6.82031 20.5573 6.79688 20.4748 6.79688 20.3906V17.2188H5.89062Z" fill="#FFD400"/>
<path d="M9.33438 18.6688L10.4219 19.4844V17.2188H7.70312V19.4844L8.79062 18.6688C8.86906 18.6099 8.96446 18.5781 9.0625 18.5781C9.16054 18.5781 9.25594 18.6099 9.33438 18.6688Z" fill="#FFD400"/>
<path d="M15.4062 21.75H23.5625V17.2188H21.75V20.3906C21.75 20.4748 21.7266 20.5573 21.6823 20.6288C21.6381 20.7004 21.5748 20.7583 21.4995 20.7959C21.4243 20.8335 21.34 20.8495 21.2562 20.8419C21.1724 20.8344 21.0923 20.8036 21.025 20.7531L19.4844 19.5977L17.9437 20.7531C17.8764 20.8036 17.7964 20.8344 17.7126 20.8419C17.6288 20.8495 17.5445 20.8335 17.4692 20.7959C17.394 20.7583 17.3307 20.7004 17.2864 20.6288C17.2422 20.5573 17.2188 20.4748 17.2188 20.3906V17.2188H15.4062V21.75Z" fill="#FFD400"/>
<path d="M15.4062 15.4062H17.2188V16.3125H15.4062V15.4062Z" fill="#FFD400"/>
<path d="M21.75 15.4062H23.5625V16.3125H21.75V15.4062Z" fill="#FFD400"/>
</svg>
